<svg width="19" height="19" viewBox="0 0 19 19" fill="none" xmlns="http://www.w3.org/2000/svg">
<circle cx="9.45843" cy="6.00938" r="5.81771" fill="#DBFFFF"/>
<g clip-path="url(#clip0_6_3069)">
<path fill-rule="evenodd" clip-rule="evenodd" d="M9.45843 0.191666C6.24414 0.191666 3.64072 2.79509 3.64072 6.00938C3.64072 8.58371 5.30604 10.7581 7.61858 11.5289C7.90946 11.5798 8.01854 11.4053 8.01854 11.2526C8.01854 11.1144 8.01127 10.6563 8.01127 10.169C6.54957 10.4381 6.17142 9.81271 6.05507 9.48546C5.98962 9.3182 5.706 8.80188 5.45875 8.66371C5.25513 8.55463 4.96425 8.28556 5.45148 8.27828C5.90962 8.27101 6.23687 8.70007 6.34595 8.8746C6.86955 9.75453 7.70584 9.50728 8.04036 9.35456C8.09127 8.97641 8.24398 8.72188 8.41124 8.57644C7.1168 8.431 5.76418 7.92922 5.76418 5.70395C5.76418 5.07127 5.98962 4.54768 6.3605 4.14044C6.30232 3.99499 6.0987 3.39868 6.41867 2.59874C6.41867 2.59874 6.90591 2.44603 8.01854 3.19506C8.48396 3.06416 8.97847 2.99871 9.47297 2.99871C9.96748 2.99871 10.462 3.06416 10.9274 3.19506C12.04 2.43876 12.5273 2.59874 12.5273 2.59874C12.8472 3.39868 12.6436 3.99499 12.5854 4.14044C12.9563 4.54768 13.1818 5.064 13.1818 5.70395C13.1818 7.93649 11.8219 8.431 10.5274 8.57644C10.7383 8.75825 10.9201 9.10731 10.9201 9.65272C10.9201 10.4308 10.9129 11.0562 10.9129 11.2526C10.9129 11.4053 11.0219 11.5871 11.3128 11.5289C12.4677 11.139 13.4713 10.3967 14.1822 9.40661C14.8932 8.41648 15.2758 7.22833 15.2761 6.00938C15.2761 2.79509 12.6727 0.191666 9.45843 0.191666Z" fill="#5222D0"/>
</g>
<path d="M3.11164 16.4555H3.37434V17.4434C3.25347 17.5495 3.11041 17.6309 2.94514 17.6876C2.77987 17.7443 2.60597 17.7727 2.42344 17.7727C2.16444 17.7727 1.93134 17.716 1.72414 17.6025C1.51694 17.489 1.35414 17.3324 1.23574 17.1326C1.11734 16.9303 1.05814 16.7046 1.05814 16.4555C1.05814 16.2064 1.11734 15.9819 1.23574 15.7821C1.35414 15.5798 1.51694 15.422 1.72414 15.3085C1.93134 15.195 2.16567 15.1383 2.42714 15.1383C2.62447 15.1383 2.80577 15.1704 2.97104 15.2345C3.13631 15.2962 3.27567 15.3887 3.38914 15.512L3.21894 15.6859C3.01421 15.4836 2.75397 15.3825 2.43824 15.3825C2.22857 15.3825 2.03864 15.4294 1.86844 15.5231C1.70071 15.6144 1.56874 15.7426 1.47254 15.9079C1.37634 16.0707 1.32824 16.2532 1.32824 16.4555C1.32824 16.6578 1.37634 16.8403 1.47254 17.0031C1.56874 17.1659 1.70071 17.2942 1.86844 17.3879C2.03617 17.4816 2.22487 17.5285 2.43454 17.5285C2.70094 17.5285 2.92664 17.4619 3.11164 17.3287V16.4555ZM4.59326 15.1605H4.86706V17.7505H4.59326V15.1605ZM6.65696 15.3973H5.74676V15.1605H7.84096V15.3973H6.93076V17.7505H6.65696V15.3973ZM10.8869 15.1605V17.7505H10.6168V16.5554H8.99617V17.7505H8.72237V15.1605H8.99617V16.3149H10.6168V15.1605H10.8869ZM13.2196 17.7727C12.8842 17.7727 12.6227 17.6765 12.4352 17.4841C12.2478 17.2917 12.154 17.0117 12.154 16.6442V15.1605H12.4278V16.6331C12.4278 16.934 12.4957 17.1585 12.6313 17.3065C12.767 17.4545 12.9631 17.5285 13.2196 17.5285C13.4786 17.5285 13.676 17.4545 13.8116 17.3065C13.9473 17.1585 14.0151 16.934 14.0151 16.6331V15.1605H14.2815V16.6442C14.2815 17.0117 14.1878 17.2917 14.0003 17.4841C13.8153 17.6765 13.5551 17.7727 13.2196 17.7727ZM17.1823 16.4148C17.3525 16.4518 17.4832 16.5258 17.5745 16.6368C17.6682 16.7453 17.7151 16.8859 17.7151 17.0586C17.7151 17.2806 17.6325 17.452 17.4672 17.5729C17.3044 17.6913 17.0627 17.7505 16.742 17.7505H15.5506V15.1605H16.668C16.9566 15.1605 17.1798 15.2185 17.3377 15.3344C17.498 15.4503 17.5782 15.6144 17.5782 15.8265C17.5782 15.9696 17.5424 16.0917 17.4709 16.1928C17.4018 16.2915 17.3056 16.3655 17.1823 16.4148ZM15.8244 15.3862V16.326H16.6495C16.8592 16.326 17.0207 16.2865 17.1342 16.2076C17.2477 16.1262 17.3044 16.009 17.3044 15.8561C17.3044 15.7032 17.2477 15.5872 17.1342 15.5083C17.0207 15.4269 16.8592 15.3862 16.6495 15.3862H15.8244ZM16.7383 17.5248C16.9702 17.5248 17.1453 17.4853 17.2637 17.4064C17.3821 17.3275 17.4413 17.2041 17.4413 17.0364C17.4413 16.7133 17.207 16.5517 16.7383 16.5517H15.8244V17.5248H16.7383Z" fill="#1F2626"/>
<defs>
<clipPath id="clip0_6_3069">
<rect width="11.6354" height="11.6354" fill="white" transform="translate(3.64072 0.191666)"/>
</clipPath>
</defs>
</svg>
