<svg width="15" height="20" viewBox="0 0 15 20" fill="none" xmlns="http://www.w3.org/2000/svg">
<circle cx="7.8344" cy="6.70107" r="5.81771" fill="#5222D0"/>
<g clip-path="url(#clip0_6_3055)">
<path d="M11.4705 4.4284V8.97348C11.4705 9.23142 11.2739 9.42799 11.016 9.42799H10.5615V5.3031L7.8344 7.26203L5.10735 5.3031V9.42799H4.65284C4.39491 9.42799 4.19833 9.23142 4.19833 8.97348V4.4284C4.19833 4.29932 4.24697 4.18569 4.32855 4.10524C4.37104 4.06273 4.42165 4.02919 4.47736 4.00663C4.53307 3.98406 4.59274 3.97293 4.65284 3.97389H4.80442L7.8344 6.17076L10.8644 3.97389H11.016C11.145 3.97389 11.2587 4.02252 11.3403 4.10524C11.4218 4.18569 11.4705 4.29932 11.4705 4.4284Z" fill="#DBFFFF"/>
</g>
<path d="M2.94443 17.1472H3.20713V18.1351C3.08627 18.2411 2.9432 18.3225 2.77793 18.3793C2.61267 18.436 2.43877 18.4644 2.25623 18.4644C1.99723 18.4644 1.76413 18.4076 1.55693 18.2942C1.34973 18.1807 1.18693 18.0241 1.06853 17.8243C0.950134 17.622 0.890934 17.3963 0.890934 17.1472C0.890934 16.898 0.950134 16.6736 1.06853 16.4738C1.18693 16.2715 1.34973 16.1136 1.55693 16.0002C1.76413 15.8867 1.99847 15.83 2.25993 15.83C2.45727 15.83 2.63857 15.862 2.80383 15.9262C2.9691 15.9878 3.10847 16.0803 3.22193 16.2037L3.05173 16.3776C2.847 16.1753 2.58677 16.0742 2.27103 16.0742C2.06137 16.0742 1.87143 16.121 1.70123 16.2148C1.5335 16.306 1.40153 16.4343 1.30533 16.5996C1.20913 16.7624 1.16103 16.9449 1.16103 17.1472C1.16103 17.3494 1.20913 17.532 1.30533 17.6948C1.40153 17.8576 1.5335 17.9858 1.70123 18.0796C1.86897 18.1733 2.05767 18.2202 2.26733 18.2202C2.53373 18.2202 2.75943 18.1536 2.94443 18.0204V17.1472ZM7.11595 15.8522V18.4422H6.85325V16.3702L5.83575 18.1129H5.70625L4.68875 16.3813V18.4422H4.42605V15.8522H4.65175L5.77655 17.7725L6.89025 15.8522H7.11595ZM10.0281 17.7503H8.58514L8.27434 18.4422H7.98944L9.17344 15.8522H9.44354L10.6275 18.4422H10.3389L10.0281 17.7503ZM9.92824 17.5283L9.30664 16.1371L8.68504 17.5283H9.92824ZM11.5 15.8522H11.7738V18.4422H11.5V15.8522ZM13.0605 15.8522H13.3343V18.2054H14.7847V18.4422H13.0605V15.8522Z" fill="#1F2626"/>
<defs>
<clipPath id="clip0_6_3055">
<rect width="7.27214" height="7.27214" fill="white" transform="translate(4.19882 3.06502)"/>
</clipPath>
</defs>
</svg>
