<svg width="36" height="38" viewBox="0 0 36 38" fill="none" xmlns="http://www.w3.org/2000/svg">
<path d="M0.279114 0.891663H35.8886V37.8917H0.279114V0.891663Z" fill="#F7DF1E"/>
<path d="M9.64221 31.8115L12.3673 30.0979C12.893 31.0664 13.3713 31.8859 14.5184 31.8859C15.618 31.8859 16.3112 31.4389 16.3112 29.7005V17.8781H19.6576V29.7497C19.6576 33.351 17.626 34.9902 14.6618 34.9902C11.9849 34.9902 10.4309 33.5496 9.64215 31.8112" fill="#1F2626"/>
<path d="M21.4758 31.439L24.2005 29.7998C24.9178 31.0169 25.85 31.9109 27.4993 31.9109C28.8858 31.9109 29.77 31.1906 29.77 30.1971C29.77 29.005 28.8618 28.5827 27.3319 27.8875L26.4955 27.5147C24.0811 26.4469 22.4796 25.1058 22.4796 22.2743C22.4796 19.6665 24.3918 17.6794 27.3798 17.6794C29.5072 17.6794 31.037 18.4495 32.1365 20.4613L29.531 22.1997C28.9573 21.1318 28.336 20.7097 27.3799 20.7097C26.3998 20.7097 25.7783 21.3554 25.7783 22.1997C25.7783 23.2429 26.3998 23.6652 27.8339 24.311L28.6704 24.6835C31.5149 25.9503 33.1165 27.2416 33.1165 30.1474C33.1165 33.277 30.7501 34.9906 27.5711 34.9906C24.4636 34.9906 22.4557 33.4508 21.4758 31.439" fill="#1F2626"/>
</svg>
