<?xml version="1.0" standalone="no"?>
<!DOCTYPE svg PUBLIC "-//W3C//DTD SVG 20010904//EN"
 "http://www.w3.org/TR/2001/REC-SVG-20010904/DTD/svg10.dtd">
<svg version="1.0" xmlns="http://www.w3.org/2000/svg"
 width="1176.000000pt" height="680.000000pt" viewBox="0 0 1176.000000 680.000000"
 preserveAspectRatio="xMidYMid meet">

<g transform="translate(0.000000,680.000000) scale(0.100000,-0.100000)"
fill="#000000" stroke="none">
<path d="M144 6606 c-30 -13 -44 -33 -44 -62 0 -19 46 -18 54 1 8 23 52 36 81
25 52 -20 15 -77 -65 -101 -77 -23 -95 -95 -39 -150 29 -29 36 -31 85 -27 83
7 93 26 94 169 0 103 -2 118 -20 134 -26 23 -106 30 -146 11z m116 -207 l0
-50 -52 3 c-49 3 -53 5 -53 28 0 20 10 30 45 47 25 12 48 22 53 23 4 0 7 -23
7 -51z"/>
<path d="M6070 4895 l0 -1375 -312 -2 c-238 -2 -312 -6 -316 -15 -3 -10 230
-13 1143 -13 913 0 1146 3 1143 13 -4 9 -178 13 -816 15 l-812 2 0 1360 0
1360 660 0 660 0 0 -159 0 -159 -32 -7 c-95 -20 -170 -95 -188 -188 -10 -57
-9 -69 9 -122 31 -89 103 -155 169 -155 16 0 31 -3 35 -6 7 -7 -39 -102 -77
-157 -15 -21 -38 -62 -53 -90 -14 -29 -38 -70 -53 -92 -49 -73 -81 -143 -68
-151 13 -8 34 17 55 66 8 19 25 49 38 65 12 17 36 55 52 86 16 31 47 84 69
119 l39 64 3 -482 c2 -418 4 -482 17 -482 13 0 15 64 17 483 l3 482 22 -35
c12 -19 26 -40 31 -45 5 -6 21 -35 35 -64 15 -29 42 -76 61 -104 18 -29 44
-74 57 -100 26 -54 36 -64 50 -50 9 9 -37 108 -65 142 -6 7 -29 46 -51 87 -22
40 -59 104 -82 142 -23 37 -45 80 -48 94 -6 24 -4 26 40 30 117 14 201 164
165 298 -17 66 -99 143 -168 160 l-52 12 0 174 0 174 -690 0 -690 0 0 -1375z
m1479 957 c58 -36 79 -65 93 -133 10 -51 9 -61 -11 -111 -40 -98 -107 -142
-207 -136 -111 7 -182 79 -192 193 -2 29 1 69 8 90 11 33 59 87 98 109 58 33
148 28 211 -12z"/>
<path d="M9426 3421 c-8 -12 3 -41 15 -41 5 0 9 11 9 25 0 25 -14 34 -24 16z"/>
<path d="M10705 3424 c-6 -2 -9 -52 -7 -130 3 -98 1 -129 -10 -135 -8 -6 4 -9
32 -9 35 1 41 3 28 11 -14 8 -18 23 -18 67 0 32 5 63 12 70 9 9 9 12 0 12 -8
0 -12 20 -12 60 0 58 -3 64 -25 54z"/>
<path d="M11086 3421 c-8 -12 3 -41 15 -41 5 0 9 11 9 25 0 25 -14 34 -24 16z"/>
<path d="M1723 3409 c15 -9 17 -26 17 -124 0 -98 -2 -115 -17 -124 -14 -8 -3
-10 42 -10 46 0 55 2 38 9 -20 8 -23 17 -23 65 l0 55 38 0 c77 0 108 59 57
114 -22 24 -31 26 -97 26 -54 -1 -69 -3 -55 -11z m125 -34 c7 -14 12 -33 12
-42 0 -21 -29 -42 -57 -43 -21 0 -23 5 -23 55 0 54 1 55 28 55 21 0 32 -7 40
-25z"/>
<path d="M1993 3409 c15 -9 17 -26 17 -124 0 -98 -2 -115 -17 -124 -14 -8 -3
-10 42 -10 46 0 55 2 38 9 -20 8 -23 17 -23 65 0 64 14 71 48 25 12 -16 22
-32 22 -35 0 -3 10 -19 22 -35 17 -24 29 -30 57 -30 l36 0 -33 20 c-18 11 -36
28 -39 38 -4 9 -15 28 -25 41 -23 30 -23 38 2 46 50 16 45 96 -7 116 -35 13
-163 12 -140 -2z m117 -21 c38 -41 17 -97 -37 -98 -21 0 -23 5 -23 53 0 30 3
57 7 60 12 13 32 7 53 -15z"/>
<path d="M2341 3388 c0 -31 1 -32 11 -10 8 16 20 22 45 22 l33 0 0 -115 c0
-111 -1 -116 -22 -125 -18 -7 -9 -9 37 -9 33 1 53 3 45 6 -26 10 -30 26 -30
136 l0 107 33 0 c25 0 37 -6 45 -22 10 -22 11 -21 11 10 l1 32 -105 0 -105 0
1 -32z"/>
<path d="M2730 3410 c-33 -13 -80 -86 -80 -125 0 -97 106 -162 204 -125 24 9
26 15 26 64 0 42 4 57 18 65 13 8 4 10 -38 10 -30 -1 -47 -3 -37 -6 14 -4 17
-16 17 -63 0 -65 -13 -78 -69 -65 -36 8 -55 29 -71 78 -15 49 -6 94 27 132 43
49 103 36 142 -30 10 -17 11 -15 9 19 -2 31 -8 40 -23 43 -63 10 -103 11 -125
3z"/>
<path d="M9113 3409 c15 -9 17 -26 17 -124 0 -98 -2 -115 -17 -124 -13 -8 2
-10 60 -11 113 0 158 22 180 89 25 79 -4 143 -79 171 -36 14 -185 13 -161 -1z
m142 -12 c0 -1 13 -17 28 -35 65 -80 1 -220 -90 -197 -22 5 -23 9 -23 119 0
82 4 116 13 120 11 5 69 -1 72 -7z"/>
<path d="M10068 3410 c21 -9 22 -15 22 -125 0 -111 -1 -116 -22 -125 -16 -6 3
-9 68 -9 78 -1 95 2 118 20 36 28 36 82 1 105 -25 17 -25 17 -5 31 25 18 25
50 0 83 -17 23 -26 25 -112 27 -67 2 -87 0 -70 -7z m142 -22 c43 -46 17 -88
-54 -88 l-36 0 0 48 c0 27 3 52 7 55 14 15 63 6 83 -15z m11 -124 c48 -43 -3
-114 -72 -99 -28 6 -29 9 -29 59 0 29 3 56 8 60 11 12 72 -1 93 -20z"/>
<path d="M9425 3324 c-6 -2 -9 -37 -7 -83 3 -70 1 -80 -15 -84 -10 -3 5 -5 32
-6 38 0 46 2 33 10 -15 8 -18 24 -18 89 0 77 -2 84 -25 74z"/>
<path d="M9538 3315 c-64 -35 -33 -164 40 -165 27 0 72 42 71 67 0 15 -2 14
-9 -4 -20 -50 -81 -40 -100 16 -14 43 -7 76 17 85 22 9 53 -3 53 -20 0 -8 7
-14 15 -14 22 0 19 27 -4 40 -26 14 -51 12 -83 -5z"/>
<path d="M9708 3319 c-18 -10 -25 -39 -9 -39 5 0 15 10 24 23 12 18 19 20 33
11 30 -18 26 -28 -24 -54 -39 -21 -48 -30 -50 -56 -4 -44 19 -62 61 -46 21 8
33 9 35 2 5 -15 28 -12 43 7 10 11 10 14 2 9 -10 -5 -13 8 -13 58 0 45 -5 69
-16 80 -17 18 -60 20 -86 5z m56 -136 c-21 -16 -34 -13 -48 10 -13 21 1 47 35
64 23 12 24 11 27 -24 3 -27 -2 -41 -14 -50z"/>
<path d="M9875 3320 c-3 -6 1 -13 10 -16 19 -8 30 0 20 15 -8 14 -22 14 -30 1z"/>
<path d="M10348 3319 c-18 -10 -25 -39 -9 -39 5 0 15 10 24 23 12 18 19 20 33
11 30 -18 26 -28 -24 -54 -39 -21 -48 -30 -50 -56 -4 -44 19 -62 61 -46 21 8
33 9 35 2 5 -15 28 -12 43 7 10 11 10 14 2 9 -10 -5 -13 8 -13 58 0 45 -5 69
-16 80 -17 18 -60 20 -86 5z m56 -136 c-21 -16 -34 -13 -48 10 -13 21 1 47 35
64 23 12 24 11 27 -24 3 -27 -2 -41 -14 -50z"/>
<path d="M10505 3320 c-11 -5 -14 -9 -7 -9 8 -1 12 -22 12 -71 0 -55 -3 -71
-17 -79 -14 -8 -6 -10 32 -10 28 1 42 3 32 6 -16 4 -18 15 -17 76 2 109 4 104
-35 87z"/>
<path d="M10570 3320 c-12 -8 -9 -10 13 -10 l27 0 0 -74 c0 -63 -3 -75 -17
-79 -10 -3 5 -5 32 -6 38 0 46 2 33 10 -14 8 -18 24 -18 77 0 85 -24 112 -70
82z"/>
<path d="M10765 3320 c-3 -5 3 -10 13 -10 25 0 32 -18 32 -85 0 -41 -4 -56
-17 -64 -14 -8 -8 -10 27 -10 25 0 39 3 33 6 -9 3 -13 28 -13 72 0 53 -4 72
-18 84 -21 19 -48 22 -57 7z"/>
<path d="M10919 3315 c-15 -8 -30 -26 -33 -40 -14 -55 26 -125 71 -125 28 0
73 42 72 67 0 14 -2 15 -6 3 -17 -47 -66 -51 -93 -7 -31 51 -27 57 40 57 66 0
79 15 38 44 -28 20 -55 20 -89 1z m62 -5 c5 0 9 -7 9 -15 0 -11 -11 -15 -40
-15 -22 0 -40 4 -40 10 0 13 33 30 48 25 8 -3 18 -5 23 -5z"/>
<path d="M11085 3324 c-6 -2 -9 -37 -7 -83 3 -70 1 -80 -15 -84 -10 -3 5 -5
32 -6 38 0 46 2 33 10 -15 8 -18 24 -18 89 0 77 -2 84 -25 74z"/>
<path d="M11185 3324 c-6 -2 -9 -34 -7 -76 3 -60 1 -74 -14 -85 -16 -11 -11
-13 32 -13 38 1 45 3 32 11 -14 8 -18 23 -18 68 0 61 14 86 43 75 8 -3 18 -1
22 5 10 17 -23 25 -42 10 -13 -11 -17 -11 -20 -1 -5 12 -10 14 -28 6z"/>
<path d="M11329 3315 c-68 -37 -31 -165 47 -165 38 0 75 40 81 87 5 36 2 45
-22 67 -31 29 -67 32 -106 11z m73 -7 c16 -13 23 -45 20 -100 -2 -30 -31 -52
-56 -42 -35 13 -51 139 -18 147 30 8 38 7 54 -5z"/>
<path d="M1895 3180 c-8 -14 3 -30 21 -30 17 0 18 -12 2 -29 -10 -11 -8 -10
10 0 12 8 22 21 22 29 0 31 -41 53 -55 30z"/>
<path d="M2255 3180 c-8 -14 3 -30 21 -30 21 0 17 -15 -8 -34 -20 -15 -21 -15
-2 -7 35 17 47 37 34 60 -11 22 -35 28 -45 11z"/>
<path d="M2567 3184 c-14 -14 -6 -34 13 -34 26 0 25 -7 -2 -32 l-23 -20 25 15
c17 10 25 23 25 43 0 28 -22 44 -38 28z"/>
<path d="M9872 3173 c2 -10 10 -18 18 -18 8 0 16 8 18 18 2 12 -3 17 -18 17
-15 0 -20 -5 -18 -17z"/>
<path d="M4848 2623 c8 -3 12 -31 12 -88 0 -57 -4 -85 -12 -88 -7 -3 17 -6 54
-6 59 -1 67 1 73 20 4 11 4 23 1 26 -3 4 -6 -1 -6 -9 0 -19 -20 -28 -61 -28
-28 0 -29 2 -29 46 l0 46 35 -4 c21 -2 35 0 35 7 0 7 -14 9 -35 7 -34 -4 -35
-3 -35 32 0 34 2 36 33 36 18 0 38 -5 45 -12 9 -9 12 -8 12 5 0 14 -10 17 -67
16 -38 0 -62 -3 -55 -6z"/>
<path d="M5538 2619 c-26 -15 -22 -45 8 -66 68 -48 79 -61 68 -80 -17 -28 -66
-24 -81 7 l-13 25 0 -26 c0 -19 6 -28 23 -33 39 -10 63 -6 81 13 27 30 16 61
-34 96 -25 17 -45 38 -45 46 0 22 42 22 64 0 l21 -21 0 23 c0 18 -6 22 -38 24
-20 1 -45 -2 -54 -8z"/>
<path d="M6215 2618 c-46 -27 -59 -61 -43 -111 14 -43 44 -67 82 -66 l31 1
-33 9 c-77 22 -70 169 8 169 13 0 32 -7 42 -17 16 -14 18 -14 18 -1 0 27 -69
37 -105 16z"/>
<path d="M6872 2608 c-32 -22 -33 -25 -29 -77 3 -38 9 -58 23 -68 56 -41 123
-19 142 45 28 94 -55 155 -136 100z m98 -15 c51 -65 -28 -191 -80 -128 -7 9
-15 38 -18 66 -4 38 -1 54 13 69 25 28 60 25 85 -7z"/>
<path d="M6315 2489 c-4 -6 -5 -12 -2 -15 2 -3 7 2 10 11 7 17 1 20 -8 4z"/>
<path d="M4640 2385 c0 -13 37 -15 270 -15 233 0 270 2 270 15 0 13 -37 15
-270 15 -233 0 -270 -2 -270 -15z"/>
<path d="M5300 2385 c0 -13 37 -15 275 -15 238 0 275 2 275 15 0 13 -37 15
-275 15 -238 0 -275 -2 -275 -15z"/>
<path d="M5970 2385 c0 -13 37 -15 275 -15 238 0 275 2 275 15 0 13 -37 15
-275 15 -238 0 -275 -2 -275 -15z"/>
<path d="M6650 2385 c0 -13 37 -15 275 -15 238 0 275 2 275 15 0 13 -37 15
-275 15 -238 0 -275 -2 -275 -15z"/>
<path d="M7320 2385 c0 -13 37 -15 275 -15 238 0 275 2 275 15 0 13 -37 15
-275 15 -238 0 -275 -2 -275 -15z"/>
<path d="M7990 2385 c0 -13 37 -15 270 -15 233 0 270 2 270 15 0 13 -37 15
-270 15 -233 0 -270 -2 -270 -15z"/>
<path d="M4565 1857 c-58 -33 -85 -86 -85 -172 0 -103 21 -150 81 -181 l48
-24 846 0 846 0 48 24 c60 31 81 78 81 181 0 86 -27 139 -85 172 l-40 23 -850
0 -850 0 -40 -23z m672 -174 c6 -15 7 -15 14 3 6 14 8 10 8 -16 0 -33 -1 -34
-14 -16 -8 11 -16 25 -16 30 -1 6 -5 -2 -9 -19 l-8 -30 -1 33 c-1 34 15 44 26
15z m88 -18 c0 -22 -31 -33 -47 -17 -17 17 -1 44 24 40 15 -2 23 -10 23 -23z
m45 8 c0 9 4 17 10 17 6 0 5 -10 -2 -25 -13 -29 -23 -32 -32 -9 -11 28 -6 38
9 18 13 -17 14 -17 15 -1z m75 -8 c0 -22 -31 -33 -47 -17 -17 17 -1 44 24 40
15 -2 23 -10 23 -23z m175 -11 c0 -29 -3 -34 -22 -33 -22 0 -22 1 -3 9 l20 9
-20 1 c-59 6 -85 4 -90 -7 -9 -24 -20 -13 -20 21 l0 33 68 0 67 0 0 -33z m65
11 c0 -22 -31 -33 -47 -17 -17 17 -1 44 24 40 15 -2 23 -10 23 -23z"/>
<path d="M5290 1665 c0 -9 5 -15 11 -13 6 2 11 8 11 13 0 5 -5 11 -11 13 -6 2
-11 -4 -11 -13z"/>
<path d="M5410 1665 c0 -9 5 -15 11 -13 6 2 11 8 11 13 0 5 -5 11 -11 13 -6 2
-11 -4 -11 -13z"/>
<path d="M5530 1665 c0 -9 5 -15 11 -13 6 2 11 8 11 13 0 5 -5 11 -11 13 -6 2
-11 -4 -11 -13z"/>
<path d="M5590 1665 c0 -8 5 -15 10 -15 6 0 10 7 10 15 0 8 -4 15 -10 15 -5 0
-10 -7 -10 -15z"/>
<path d="M5650 1665 c0 -9 5 -15 11 -13 6 2 11 8 11 13 0 5 -5 11 -11 13 -6 2
-11 -4 -11 -13z"/>
<path d="M6845 1866 c-37 -17 -80 -62 -94 -99 -26 -67 -7 -201 33 -234 21 -18
21 -18 5 2 -28 34 -41 94 -37 166 4 73 20 104 72 143 27 21 34 21 891 21 857
0 864 0 891 -21 52 -39 68 -70 72 -143 4 -72 -9 -132 -37 -166 -16 -20 -16
-20 5 -2 42 35 59 173 30 240 -16 39 -61 82 -99 96 -46 18 -1693 14 -1732 -3z"/>
<path d="M7581 1673 c-1 -27 3 -33 18 -33 11 0 22 4 25 9 4 5 -3 7 -13 4 -15
-4 -20 1 -24 24 -4 27 -4 27 -6 -4z"/>
<path d="M7790 1693 c-46 -14 -46 -14 -26 -29 19 -13 19 -14 1 -14 -10 0 -16
-3 -12 -6 3 -4 14 -3 24 0 17 7 17 8 -1 22 -19 14 -19 14 2 14 15 0 22 -6 22
-20 0 -11 4 -20 8 -20 8 0 9 47 1 54 -2 2 -11 1 -19 -1z"/>
<path d="M7665 1678 c17 -7 15 -8 -7 -5 -15 2 -25 0 -22 -5 3 -5 18 -9 32 -8
48 3 58 -3 17 -10 l-40 -7 37 -2 c40 -1 60 15 32 26 -16 6 -16 7 2 13 12 5 2
7 -26 7 -34 0 -40 -2 -25 -9z"/>
<path d="M7851 1663 c1 -22 2 -23 6 -8 3 11 10 23 17 27 7 5 5 8 -6 8 -13 0
-18 -7 -17 -27z"/>
<path d="M6810 1514 c0 -3 16 -12 35 -20 52 -21 1688 -21 1740 0 19 8 35 17
35 20 0 3 -16 -2 -35 -10 -52 -21 -1688 -21 -1740 0 -19 8 -35 13 -35 10z"/>
<path d="M7090 810 l0 -100 330 0 330 0 0 100 0 100 -330 0 -330 0 0 -100z
m146 25 c9 -13 13 -33 9 -44 -7 -24 -35 -36 -35 -16 0 8 5 15 10 15 6 0 10 12
9 28 0 15 -3 21 -6 15 -2 -7 -13 -13 -23 -13 -10 0 -21 6 -23 13 -3 6 -6 0 -6
-15 -1 -14 4 -28 11 -30 8 -3 6 -7 -4 -11 -25 -9 -33 29 -14 58 9 14 25 25 36
25 11 0 27 -11 36 -25z m124 -35 c0 -13 -7 -20 -19 -20 -22 0 -35 15 -26 30
12 19 45 11 45 -10z m46 0 c0 -11 -5 -20 -11 -20 -6 0 -11 9 -11 20 0 11 5 20
11 20 6 0 11 -9 11 -20z m57 0 c-3 -11 -9 -20 -13 -20 -4 0 -10 9 -13 20 -4
15 0 20 13 20 13 0 17 -5 13 -20z m67 -5 c0 -17 -2 -17 -10 -5 -9 13 -11 13
-20 0 -8 -12 -10 -12 -10 5 0 14 6 21 20 21 14 0 20 -7 20 -21z m41 8 c1 -17
2 -17 6 0 6 24 23 21 23 -4 0 -15 -5 -20 -22 -17 -23 3 -39 38 -19 38 6 0 12
-8 12 -17z m92 3 c7 -18 -1 -26 -25 -26 -11 0 -18 7 -18 20 0 23 35 28 43 6z"/>
<path d="M5814 886 c-11 -28 1 -71 20 -74 20 -4 44 14 32 25 -4 4 -11 1 -17
-7 -8 -13 -10 -13 -19 0 -15 23 -8 55 12 54 10 -1 15 2 12 7 -8 14 -34 11 -40
-5z"/>
<path d="M5882 855 c1 -34 2 -40 5 -17 2 17 8 32 13 32 5 0 11 -15 13 -32 4
-32 4 -32 5 5 2 26 -2 37 -12 37 -8 0 -17 6 -19 13 -3 6 -5 -10 -5 -38z"/>
<path d="M6003 855 c0 -27 2 -38 4 -22 2 15 2 37 0 50 -2 12 -4 0 -4 -28z"/>
<path d="M6023 855 c0 -27 2 -38 4 -22 2 15 2 37 0 50 -2 12 -4 0 -4 -28z"/>
<path d="M6316 853 c-11 -35 -12 -43 -2 -30 7 9 19 17 26 17 7 0 19 -8 26 -17
12 -15 12 -13 2 17 -6 19 -13 29 -16 22 -5 -17 -22 -15 -22 3 0 8 5 15 10 15
6 0 10 5 10 10 0 27 -20 5 -34 -37z"/>
<path d="M6393 855 c0 -27 2 -38 4 -22 2 15 2 37 0 50 -2 12 -4 0 -4 -28z"/>
<path d="M5949 878 c0 -2 -3 -18 -5 -35 -4 -28 -2 -33 15 -33 17 0 21 6 21 35
0 24 -5 35 -15 35 -8 0 -15 -1 -16 -2z m21 -43 c0 -8 -4 -15 -10 -15 -5 0 -10
7 -10 15 0 8 5 15 10 15 6 0 10 -7 10 -15z"/>
<path d="M6044 866 c-9 -24 0 -51 19 -54 11 -2 17 3 16 15 0 10 -3 13 -6 6 -7
-18 -23 -16 -23 2 0 8 9 15 20 15 13 0 18 5 14 15 -8 19 -33 19 -40 1z"/>
<path d="M6102 843 c1 -37 1 -37 5 -5 2 17 8 32 13 32 5 0 11 -15 13 -32 4
-32 4 -32 5 5 2 31 -1 37 -18 37 -17 0 -20 -6 -18 -37z"/>
<path d="M6166 871 c-4 -5 -5 -24 -4 -40 2 -23 7 -31 21 -31 15 0 18 7 15 37
-3 36 -20 54 -32 34z m24 -26 c0 -14 -4 -25 -10 -25 -5 0 -10 11 -10 25 0 14
5 25 10 25 6 0 10 -11 10 -25z"/>
<path d="M6224 866 c-9 -24 0 -51 19 -54 11 -2 17 3 16 15 0 10 -3 13 -6 6 -7
-18 -23 -16 -23 2 0 8 9 15 20 15 13 0 18 5 14 15 -8 19 -33 19 -40 1z"/>
<path d="M6412 848 c-2 -32 1 -38 18 -38 17 0 20 6 18 38 -1 36 -1 36 -5 5 -2
-18 -8 -33 -13 -33 -5 0 -11 15 -13 33 -4 31 -4 31 -5 -5z"/>
<path d="M6471 843 c2 -35 2 -35 6 -8 3 16 10 33 16 37 8 5 6 8 -5 8 -14 0
-18 -8 -17 -37z"/>
<path d="M6519 878 c0 -2 -3 -18 -5 -35 -4 -28 -2 -33 15 -33 17 0 21 6 21 35
0 24 -5 35 -15 35 -8 0 -15 -1 -16 -2z m21 -43 c0 -8 -4 -15 -10 -15 -5 0 -10
7 -10 15 0 8 5 15 10 15 6 0 10 -7 10 -15z"/>
<path d="M6845 790 c-2 -3 5 -7 16 -7 10 -1 19 2 19 6 0 9 -29 10 -35 1z"/>
<path d="M5430 750 c0 -33 3 -40 20 -40 10 0 24 9 30 20 14 26 -3 60 -30 60
-17 0 -20 -7 -20 -40z m44 15 c8 -21 -3 -45 -20 -45 -9 0 -14 11 -14 30 0 32
23 42 34 15z"/>
<path d="M5683 750 c0 -25 2 -35 4 -22 2 12 2 32 0 45 -2 12 -4 2 -4 -23z"/>
<path d="M5984 776 c-3 -8 -4 -25 -2 -38 4 -29 51 -33 56 -5 2 11 -3 17 -15
17 -15 0 -15 -2 -3 -10 18 -11 7 -25 -15 -17 -20 8 -19 46 1 54 9 3 20 0 26
-8 8 -12 9 -11 5 1 -5 20 -46 25 -53 6z"/>
<path d="M6458 751 c-15 -39 -15 -39 3 -28 15 9 23 9 39 -1 18 -11 19 -10 8
14 -7 15 -14 21 -16 15 -5 -16 -22 -13 -22 4 0 8 5 15 10 15 6 0 10 5 10 10 0
23 -18 7 -32 -29z"/>
<path d="M5504 755 c-4 -8 -4 -22 0 -30 6 -16 36 -21 36 -5 0 5 -7 7 -15 4 -8
-4 -15 -1 -15 5 0 6 9 11 20 11 13 0 18 5 14 15 -4 8 -13 15 -20 15 -8 0 -17
-7 -20 -15z"/>
<path d="M5566 745 c2 -11 4 -23 4 -27 0 -20 17 -5 28 25 10 27 9 29 -2 15
-16 -21 -23 -22 -29 -5 -2 6 -3 3 -1 -8z"/>
<path d="M5624 755 c-4 -8 -4 -22 0 -30 6 -16 36 -21 36 -5 0 5 -7 7 -15 4 -8
-4 -15 -1 -15 5 0 6 9 11 20 11 13 0 18 5 14 15 -4 8 -13 15 -20 15 -8 0 -17
-7 -20 -15z"/>
<path d="M5704 755 c-8 -21 3 -48 19 -43 19 7 22 58 2 58 -8 0 -18 -7 -21 -15z
m26 -15 c0 -11 -4 -20 -10 -20 -5 0 -10 9 -10 20 0 11 5 20 10 20 6 0 10 -9
10 -20z"/>
<path d="M5761 728 c0 -24 3 -37 6 -30 2 6 11 12 18 12 16 0 26 25 19 45 -4 8
-15 15 -25 15 -16 0 -19 -7 -18 -42z m34 12 c0 -7 -6 -15 -12 -17 -8 -3 -13 4
-13 17 0 13 5 20 13 18 6 -3 12 -11 12 -18z"/>
<path d="M5824 755 c-4 -8 -4 -22 0 -30 6 -16 36 -21 36 -5 0 5 -7 7 -15 4 -8
-4 -15 -1 -15 5 0 6 9 11 20 11 13 0 18 5 14 15 -4 8 -13 15 -20 15 -8 0 -17
-7 -20 -15z"/>
<path d="M5881 738 c2 -28 2 -29 6 -8 3 14 10 28 17 32 7 5 5 8 -6 8 -14 0
-18 -8 -17 -32z"/>
<path d="M6064 755 c-4 -8 -4 -22 0 -30 6 -16 36 -21 36 -5 0 5 -7 7 -15 4 -8
-4 -15 -1 -15 5 0 6 9 11 20 11 13 0 18 5 14 15 -4 8 -13 15 -20 15 -8 0 -17
-7 -20 -15z"/>
<path d="M6124 755 c-8 -21 3 -48 19 -43 19 7 22 58 2 58 -8 0 -18 -7 -21 -15z
m26 -15 c0 -11 -4 -20 -10 -20 -5 0 -10 9 -10 20 0 11 5 20 10 20 6 0 10 -9
10 -20z"/>
<path d="M6186 745 c2 -11 4 -23 4 -27 0 -20 17 -5 28 25 10 27 9 29 -2 15
-16 -21 -23 -22 -29 -5 -2 6 -3 3 -1 -8z"/>
<path d="M6249 768 c0 -2 -3 -15 -5 -30 -4 -23 -1 -28 16 -28 16 0 20 6 20 30
0 20 -5 30 -15 30 -8 0 -15 -1 -16 -2z m21 -38 c0 -5 -4 -10 -10 -10 -5 0 -10
5 -10 10 0 6 5 10 10 10 6 0 10 -4 10 -10z"/>
<path d="M6301 738 c2 -31 2 -31 6 -5 2 15 8 27 13 27 5 0 11 -12 13 -27 4
-26 4 -26 6 5 1 26 -3 32 -19 32 -16 0 -20 -6 -19 -32z"/>
<path d="M6364 755 c-4 -8 -4 -22 0 -30 6 -16 36 -21 36 -5 0 5 -7 7 -15 4 -8
-4 -15 -1 -15 5 0 6 9 11 20 11 13 0 18 5 14 15 -4 8 -13 15 -20 15 -8 0 -17
-7 -20 -15z"/>
<path d="M6530 759 c0 -7 8 -18 18 -26 16 -14 16 -14 0 -9 -10 3 -18 1 -18 -4
0 -13 37 -13 45 -1 3 5 1 12 -4 16 -6 3 -8 12 -4 20 3 10 -2 15 -16 15 -12 0
-21 -5 -21 -11z"/>
<path d="M6600 759 c0 -7 8 -18 18 -26 16 -14 16 -14 0 -9 -10 3 -18 1 -18 -4
0 -13 37 -13 45 -1 3 5 1 12 -4 16 -6 3 -8 12 -4 20 3 10 -2 15 -16 15 -12 0
-21 -5 -21 -11z"/>
<path d="M6661 743 c-1 -27 3 -33 19 -33 16 0 20 6 19 33 -2 30 -2 30 -6 5 -2
-16 -8 -28 -13 -28 -5 0 -11 12 -13 28 -4 25 -4 25 -6 -5z"/>
<path d="M6721 738 c2 -31 2 -31 6 -5 2 15 8 27 13 27 5 0 11 -12 13 -27 4
-26 4 -26 6 5 1 26 -3 32 -19 32 -16 0 -20 -6 -19 -32z"/>
<path d="M6784 755 c-13 -32 23 -63 40 -36 4 5 -3 7 -14 4 -16 -4 -20 0 -20
17 0 17 4 21 20 17 11 -3 18 -1 14 4 -8 14 -34 11 -40 -6z"/>
<path d="M6849 768 c0 -2 -3 -15 -5 -30 -4 -23 -1 -28 16 -28 16 0 20 6 20 30
0 20 -5 30 -15 30 -8 0 -15 -1 -16 -2z m21 -38 c0 -5 -4 -10 -10 -10 -5 0 -10
5 -10 10 0 6 5 10 10 10 6 0 10 -4 10 -10z"/>
<path d="M6904 755 c-8 -21 3 -48 19 -43 19 7 22 58 2 58 -8 0 -18 -7 -21 -15z
m26 -15 c0 -11 -4 -20 -10 -20 -5 0 -10 9 -10 20 0 11 5 20 10 20 6 0 10 -9
10 -20z"/>
<path d="M6800 690 c-9 -6 -10 -10 -3 -10 6 0 15 5 18 10 8 12 4 12 -15 0z"/>
</g>
</svg>
