<svg width="23" height="20" viewBox="0 0 23 20" fill="none" xmlns="http://www.w3.org/2000/svg">
<ellipse cx="11.2579" cy="6.70099" rx="5.81771" ry="5.81771" fill="#5222D0"/>
<path d="M8.39361 9.73414H9.61092V5.2301H8.39361V9.73414ZM9.00227 3.24184C8.5965 3.24184 8.27188 3.56645 8.27188 3.97222C8.27188 4.37799 8.5965 4.7026 9.00227 4.7026C9.40803 4.7026 9.73265 4.37799 9.73265 3.97222C9.73265 3.56645 9.40803 3.24184 9.00227 3.24184ZM11.6803 5.91991V5.2301H10.463V9.73414H11.6803V7.42126C11.6803 6.1228 13.344 6.04164 13.344 7.42126V9.73414H14.5613V6.97491C14.5613 4.78376 12.2484 4.86491 11.6803 5.91991Z" fill="#DBFFFF"/>
<path d="M0.874631 15.8522H1.14843V18.2054H2.59883V18.4422H0.874631V15.8522ZM3.49744 15.8522H3.77124V18.4422H3.49744V15.8522ZM7.22244 15.8522V18.4422H6.99674L5.33174 16.3406V18.4422H5.05794V15.8522H5.28364L6.95234 17.9538V15.8522H7.22244ZM9.31471 17.2249L8.78561 17.7614V18.4422H8.51181V15.8522H8.78561V17.4173L10.3063 15.8522H10.6208L9.49971 17.0251L10.6985 18.4422H10.3729L9.31471 17.2249ZM13.4178 18.2054V18.4422H11.5863V15.8522H13.3623V16.089H11.8601V17.0103H13.1995V17.2434H11.8601V18.2054H13.4178ZM14.5054 15.8522H15.5599C15.8337 15.8522 16.0754 15.9077 16.2851 16.0187C16.4947 16.1272 16.6575 16.2802 16.7735 16.4775C16.8894 16.6724 16.9474 16.8956 16.9474 17.1472C16.9474 17.3988 16.8894 17.6233 16.7735 17.8206C16.6575 18.0155 16.4947 18.1684 16.2851 18.2794C16.0754 18.3879 15.8337 18.4422 15.5599 18.4422H14.5054V15.8522ZM15.5451 18.2054C15.772 18.2054 15.9706 18.161 16.1408 18.0722C16.311 17.9809 16.4429 17.8564 16.5367 17.6985C16.6304 17.5382 16.6773 17.3544 16.6773 17.1472C16.6773 16.94 16.6304 16.7575 16.5367 16.5996C16.4429 16.4393 16.311 16.3147 16.1408 16.2259C15.9706 16.1346 15.772 16.089 15.5451 16.089H14.7792V18.2054H15.5451ZM18.0062 15.8522H18.28V18.4422H18.0062V15.8522ZM21.7312 15.8522V18.4422H21.5055L19.8405 16.3406V18.4422H19.5667V15.8522H19.7924L21.4611 17.9538V15.8522H21.7312Z" fill="#1F2626"/>
</svg>
