<?xml version="1.0" standalone="no"?>
<!DOCTYPE svg PUBLIC "-//W3C//DTD SVG 20010904//EN"
 "http://www.w3.org/TR/2001/REC-SVG-20010904/DTD/svg10.dtd">
<svg version="1.0" xmlns="http://www.w3.org/2000/svg"
 width="1197.000000pt" height="485.000000pt" viewBox="0 0 1197.000000 485.000000"
 preserveAspectRatio="xMidYMid meet">

<g transform="translate(0.000000,485.000000) scale(0.100000,-0.100000)"
fill="#000000" stroke="none">
<path d="M168 4674 c-22 -47 30 -85 66 -49 14 15 17 15 22 1 7 -18 30 -21 39
-6 3 6 -1 7 -9 4 -9 -3 -16 -1 -16 5 0 6 7 11 15 11 8 0 15 5 15 10 0 16 -33
26 -38 12 -2 -7 -14 -12 -28 -12 -17 0 -22 -4 -17 -16 4 -12 1 -15 -13 -12
-25 4 -32 55 -10 64 9 4 23 1 31 -6 12 -10 15 -10 15 2 0 8 -12 15 -30 16 -24
2 -33 -3 -42 -24z"/>
<path d="M664 4676 c4 -15 1 -26 -7 -29 -7 -3 -4 -6 7 -6 12 -1 16 -6 12 -16
-3 -10 1 -15 13 -15 18 0 18 2 2 45 -17 47 -38 63 -27 21z"/>
<path d="M1010 4695 c0 -7 30 -13 34 -7 3 4 -4 9 -15 9 -10 1 -19 0 -19 -2z"/>
<path d="M7043 4684 c-4 -11 2 -23 18 -35 13 -10 21 -21 17 -25 -4 -4 -14 -1
-23 6 -12 10 -15 10 -15 -2 0 -18 47 -21 54 -3 5 15 -18 45 -35 45 -5 0 -9 5
-9 11 0 6 9 9 20 6 11 -3 18 -1 14 4 -9 15 -34 10 -41 -7z"/>
<path d="M7170 4656 c0 -39 2 -43 23 -42 27 1 37 43 13 52 -9 3 -16 12 -16 20
0 8 -4 14 -10 14 -5 0 -10 -20 -10 -44z m40 -16 c0 -11 -4 -20 -10 -20 -5 0
-10 9 -10 20 0 11 5 20 10 20 6 0 10 -9 10 -20z"/>
<path d="M7766 4685 c-6 -15 18 -45 37 -45 8 0 8 -3 -1 -12 -8 -8 -15 -8 -27
2 -12 10 -15 10 -15 -2 0 -10 9 -15 27 -14 34 1 43 30 14 46 -24 12 -29 35 -5
26 8 -3 12 -2 9 4 -9 15 -32 12 -39 -5z"/>
<path d="M7830 4655 l0 -45 45 0 c43 0 45 1 45 30 0 27 -3 30 -32 29 -24 -1
-27 -3 -10 -6 14 -3 22 -12 22 -24 0 -10 -3 -19 -8 -19 -14 0 -42 40 -42 60 0
11 -4 20 -10 20 -5 0 -10 -20 -10 -45z m35 -25 c3 -5 1 -10 -4 -10 -6 0 -11 5
-11 10 0 6 2 10 4 10 3 0 8 -4 11 -10z"/>
<path d="M7930 4655 c0 -25 5 -45 10 -45 6 0 10 20 10 45 0 25 -4 45 -10 45
-5 0 -10 -20 -10 -45z"/>
<path d="M7965 4655 c0 -25 5 -45 10 -45 6 0 9 19 7 45 -2 25 -7 45 -11 45 -3
0 -6 -20 -6 -45z"/>
<path d="M8205 4655 c0 -35 4 -45 17 -45 12 0 15 6 10 22 -3 14 -2 19 6 14 7
-4 12 -1 12 9 0 9 -4 13 -10 10 -5 -3 -10 1 -10 11 0 11 6 15 20 11 11 -3 20
-1 20 4 0 5 -15 9 -32 9 -32 0 -33 -1 -33 -45z"/>
<path d="M8626 4688 c3 -4 9 -8 15 -8 5 0 9 4 9 8 0 5 -7 9 -15 9 -8 0 -12 -4
-9 -9z"/>
<path d="M8885 4655 c0 -44 1 -45 33 -45 17 0 32 4 32 9 0 4 -11 6 -25 3 -19
-3 -25 0 -25 13 0 11 5 15 15 11 9 -3 15 0 15 9 0 9 -6 12 -15 9 -9 -4 -15 0
-15 9 0 9 10 18 23 20 17 3 16 5 -8 6 -29 1 -30 0 -30 -44z"/>
<path d="M9236 4692 c-3 -5 1 -9 9 -9 8 0 12 4 9 9 -3 4 -7 8 -9 8 -2 0 -6 -4
-9 -8z"/>
<path d="M9655 4655 c0 -35 4 -45 17 -45 11 0 15 6 11 19 -3 13 2 20 17 24 33
9 22 41 -15 45 -29 3 -30 2 -30 -43z m45 20 c0 -8 -4 -15 -10 -15 -5 0 -10 7
-10 15 0 8 5 15 10 15 6 0 10 -7 10 -15z"/>
<path d="M10300 4656 c0 -39 2 -43 23 -42 16 1 23 8 25 29 2 19 -1 27 -12 27
-9 0 -16 7 -16 15 0 8 -4 15 -10 15 -5 0 -10 -20 -10 -44z m40 -16 c0 -11 -4
-20 -10 -20 -5 0 -10 9 -10 20 0 11 5 20 10 20 6 0 10 -9 10 -20z"/>
<path d="M11027 4682 c-10 -10 -17 -23 -17 -28 0 -4 7 2 16 15 12 17 24 22 45
19 15 -3 26 -1 23 4 -9 15 -51 8 -67 -10z"/>
<path d="M11378 4660 c3 -25 0 -40 -7 -40 -6 0 -11 11 -11 25 0 14 -3 25 -7
25 -5 0 -8 -13 -8 -30 0 -25 4 -30 25 -30 24 0 25 3 22 45 -2 25 -7 45 -11 45
-3 0 -5 -18 -3 -40z"/>
<path d="M9938 4675 c-6 -7 3 -65 11 -65 7 0 7 58 -1 65 -2 3 -7 3 -10 0z"/>
<path d="M314 4655 c-8 -21 2 -45 20 -45 17 0 28 24 20 45 -4 8 -13 15 -20 15
-8 0 -17 -7 -20 -15z m26 -15 c0 -11 -4 -20 -10 -20 -5 0 -10 9 -10 20 0 11 5
20 10 20 6 0 10 -9 10 -20z"/>
<path d="M368 4658 c7 -7 12 -20 12 -30 0 -10 5 -18 11 -18 6 0 8 7 5 16 -3 9
-6 22 -6 30 0 8 -8 14 -17 14 -13 0 -14 -3 -5 -12z"/>
<path d="M430 4660 c0 -5 6 -7 14 -4 16 6 16 -19 1 -33 -4 -4 -5 -2 -1 5 4 6
2 12 -3 12 -6 0 -11 -7 -11 -15 0 -9 9 -15 23 -15 20 0 23 4 19 30 -3 21 -10
30 -23 30 -11 0 -19 -4 -19 -10z"/>
<path d="M490 4641 c0 -27 4 -31 26 -31 22 0 25 4 22 28 -2 19 -9 28 -25 30
-20 3 -23 -1 -23 -27z m27 -13 c-3 -7 -5 -2 -5 12 0 14 2 19 5 13 2 -7 2 -19
0 -25z"/>
<path d="M557 4655 c-13 -32 21 -63 38 -35 3 6 -1 7 -9 4 -9 -3 -16 -1 -16 5
0 6 7 11 16 11 20 0 13 24 -8 28 -9 2 -18 -4 -21 -13z"/>
<path d="M720 4656 c0 -8 6 -17 13 -19 9 -4 8 -8 -3 -16 -13 -9 -13 -11 2 -11
12 0 16 8 16 30 -1 30 -28 45 -28 16z"/>
<path d="M767 4663 c-4 -3 1 -15 10 -26 17 -19 17 -20 1 -14 -10 4 -18 2 -18
-3 0 -6 9 -10 20 -10 25 0 26 18 3 37 -17 14 -17 14 0 9 9 -3 17 -1 17 4 0 11
-23 13 -33 3z"/>
<path d="M818 4640 c3 -23 9 -30 26 -30 19 0 22 4 18 30 -2 17 -8 30 -12 30
-5 0 -6 -8 -3 -19 3 -10 0 -22 -6 -25 -7 -5 -11 3 -11 18 0 14 -4 26 -8 26 -5
0 -7 -13 -4 -30z"/>
<path d="M880 4641 c0 -27 4 -31 26 -31 22 0 25 4 22 28 -2 19 -9 28 -25 30
-20 3 -23 -1 -23 -27z m27 -13 c-3 -7 -5 -2 -5 12 0 14 2 19 5 13 2 -7 2 -19
0 -25z"/>
<path d="M946 4655 c-12 -32 22 -63 39 -35 3 6 -1 7 -9 4 -11 -4 -16 0 -16 15
0 15 4 19 17 14 11 -4 14 -3 9 5 -10 17 -33 15 -40 -3z"/>
<path d="M1000 4660 c0 -5 6 -7 14 -4 16 6 16 -19 1 -33 -4 -4 -5 -2 -1 5 4 6
2 12 -3 12 -6 0 -11 -7 -11 -15 0 -9 9 -15 23 -15 20 0 23 4 19 30 -3 21 -10
30 -23 30 -11 0 -19 -4 -19 -10z"/>
<path d="M1064 4655 c-8 -21 2 -45 20 -45 17 0 28 24 20 45 -4 8 -13 15 -20
15 -8 0 -17 -7 -20 -15z m26 -15 c0 -11 -4 -20 -10 -20 -5 0 -10 9 -10 20 0
11 5 20 10 20 6 0 10 -9 10 -20z"/>
<path d="M7114 4655 c-8 -21 2 -45 20 -45 7 0 16 7 20 15 8 21 -3 45 -20 45
-8 0 -17 -7 -20 -15z m26 -15 c0 -11 -4 -20 -10 -20 -5 0 -10 9 -10 20 0 11 5
20 10 20 6 0 10 -9 10 -20z"/>
<path d="M7235 4640 c0 -17 5 -30 13 -30 6 0 12 12 12 26 0 14 4 23 10 19 6
-3 10 -1 10 4 0 6 -10 11 -22 11 -19 0 -23 -6 -23 -30z"/>
<path d="M7297 4664 c-4 -4 -7 -18 -7 -31 0 -24 23 -32 36 -11 4 6 3 8 -4 4
-6 -3 -13 -2 -17 4 -3 5 1 10 10 10 9 0 15 5 13 12 -5 14 -22 21 -31 12z"/>
<path d="M7370 4640 c0 -16 5 -30 10 -30 6 0 10 14 10 30 0 17 -4 30 -10 30
-5 0 -10 -13 -10 -30z"/>
<path d="M7405 4639 c0 -24 4 -29 26 -29 22 0 25 3 21 29 -3 21 -9 29 -25 29
-18 0 -22 -6 -22 -29z m31 -16 c-11 -11 -19 6 -11 24 8 17 8 17 12 0 3 -10 2
-21 -1 -24z"/>
<path d="M7470 4640 c0 -16 5 -30 10 -30 6 0 10 14 10 30 0 17 -4 30 -10 30
-5 0 -10 -13 -10 -30z"/>
<path d="M7505 4639 c0 -25 4 -29 27 -29 21 0 25 4 21 19 -3 10 0 22 6 25 7 5
11 -3 11 -18 0 -14 5 -26 10 -26 12 0 13 30 2 46 -4 5 -23 10 -42 11 -32 0
-35 -2 -35 -28z m31 -16 c-11 -11 -19 6 -11 24 8 17 8 17 12 0 3 -10 2 -21 -1
-24z"/>
<path d="M8000 4656 c0 -8 5 -18 11 -22 8 -4 7 -9 -2 -15 -11 -7 -10 -9 4 -9
20 0 22 20 5 39 -10 11 -10 13 0 7 6 -4 12 -2 12 3 0 6 -7 11 -15 11 -8 0 -15
-6 -15 -14z"/>
<path d="M8284 4656 c-8 -22 3 -49 19 -43 6 2 12 14 12 27 0 27 -22 39 -31 16z
m26 -16 c0 -11 -4 -20 -10 -20 -5 0 -10 9 -10 20 0 11 5 20 10 20 6 0 10 -9
10 -20z"/>
<path d="M8340 4640 c0 -16 5 -30 10 -30 6 0 10 14 10 30 0 17 -4 30 -10 30
-5 0 -10 -13 -10 -30z"/>
<path d="M8390 4640 c0 -16 5 -30 10 -30 6 0 10 14 10 30 0 17 -4 30 -10 30
-5 0 -10 -13 -10 -30z"/>
<path d="M8425 4639 c0 -24 4 -29 26 -29 22 0 25 3 21 29 -3 21 -9 29 -25 29
-18 0 -22 -6 -22 -29z m31 -16 c-11 -11 -19 6 -11 24 8 17 8 17 12 0 3 -10 2
-21 -1 -24z"/>
<path d="M8494 4658 c-5 -7 -2 -9 7 -6 10 4 15 -1 16 -16 0 -11 -1 -15 -4 -8
-7 17 -23 15 -23 -3 0 -9 9 -15 23 -15 20 0 23 4 19 30 -4 30 -25 40 -38 18z"/>
<path d="M8554 4655 c-4 -8 -3 -23 2 -32 4 -10 6 -21 6 -25 -3 -13 16 -9 21 5
2 6 -3 17 -11 23 -16 12 -7 39 9 29 5 -4 9 -1 9 4 0 17 -30 13 -36 -4z"/>
<path d="M8604 4658 c-5 -7 -2 -9 7 -6 10 4 15 -1 16 -16 0 -11 -1 -15 -4 -8
-3 6 -9 10 -14 6 -17 -10 -9 -24 14 -24 20 0 23 4 19 30 -4 30 -25 40 -38 18z"/>
<path d="M8664 4656 c-9 -24 4 -48 23 -44 12 2 18 12 18 28 0 29 -32 41 -41
16z m23 -28 c-3 -7 -5 -2 -5 12 0 14 2 19 5 13 2 -7 2 -19 0 -25z"/>
<path d="M8970 4650 c6 -11 5 -21 -2 -28 -9 -9 -5 -12 15 -12 25 0 27 2 16 21
-8 16 -8 23 1 29 7 5 2 8 -14 8 -21 0 -24 -3 -16 -18z"/>
<path d="M9025 4625 c0 -29 4 -45 12 -45 7 0 10 7 7 15 -4 9 0 15 9 15 8 0 17
7 21 15 9 24 -4 45 -28 45 -18 0 -21 -6 -21 -45z m35 15 c0 -11 -4 -20 -10
-20 -5 0 -10 9 -10 20 0 11 5 20 10 20 6 0 10 -9 10 -20z"/>
<path d="M9097 4664 c-11 -11 -8 -42 4 -50 6 -3 16 -1 22 6 9 10 9 11 0 6 -6
-3 -14 -2 -18 4 -3 5 1 10 10 10 9 0 15 5 13 12 -5 14 -22 21 -31 12z"/>
<path d="M9145 4638 c0 -15 5 -28 11 -28 6 0 10 10 10 21 -1 14 6 23 18 25 14
2 17 -2 13 -22 -2 -14 0 -24 8 -24 7 0 10 11 7 30 -4 26 -8 29 -36 28 -27 -1
-31 -5 -31 -30z"/>
<path d="M9237 4664 c-11 -11 -8 -42 4 -50 6 -3 16 -1 22 6 9 10 9 11 0 6 -6
-3 -14 -2 -18 4 -3 5 1 10 10 10 9 0 15 5 13 12 -5 14 -22 21 -31 12z"/>
<path d="M9285 4639 c0 -24 4 -29 26 -29 22 0 25 3 21 29 -3 21 -9 29 -25 29
-18 0 -22 -6 -22 -29z m31 -16 c-11 -11 -19 6 -11 24 8 17 8 17 12 0 3 -10 2
-21 -1 -24z"/>
<path d="M9354 4655 c-8 -20 2 -45 18 -45 9 0 9 3 0 12 -17 17 -15 41 3 34 8
-3 15 -1 15 4 0 16 -30 11 -36 -5z"/>
<path d="M9405 4640 c0 -16 5 -30 11 -30 6 0 9 13 6 30 -2 17 -7 30 -11 30 -3
0 -6 -13 -6 -30z"/>
<path d="M9440 4660 c0 -6 4 -9 8 -6 4 2 9 -5 9 -17 2 -17 0 -19 -7 -7 -8 13
-10 12 -10 -2 0 -12 8 -18 21 -18 16 0 20 5 17 27 -3 27 -38 48 -38 23z"/>
<path d="M9730 4639 c0 -16 5 -29 10 -29 6 0 10 9 10 20 0 11 5 20 10 20 19 0
10 16 -10 17 -16 1 -20 -4 -20 -28z"/>
<path d="M9784 4656 c-9 -24 4 -48 23 -44 12 2 18 12 18 28 0 29 -32 41 -41
16z m26 -18 c0 -16 -3 -19 -11 -11 -6 6 -8 16 -5 22 11 17 16 13 16 -11z"/>
<path d="M9848 4629 c3 -29 1 -40 -7 -35 -6 4 -11 2 -11 -3 0 -6 7 -11 15 -11
11 0 15 12 15 45 0 25 -3 45 -8 45 -4 0 -6 -19 -4 -41z"/>
<path d="M9884 4656 c-8 -20 2 -46 17 -46 8 0 8 4 -1 15 -10 12 -9 15 5 15 9
0 15 5 13 12 -7 19 -27 21 -34 4z"/>
<path d="M9975 4650 c-8 -26 7 -45 30 -36 21 8 16 50 -7 54 -10 2 -19 -5 -23
-18z m27 -22 c-9 -9 -12 -7 -12 12 0 19 3 21 12 12 9 -9 9 -15 0 -24z"/>
<path d="M10037 4663 c-4 -3 1 -15 10 -26 17 -19 17 -20 1 -14 -10 4 -18 2
-18 -3 0 -14 27 -12 36 1 4 7 -1 16 -11 21 -14 8 -15 12 -4 19 8 5 9 9 3 9 -6
0 -14 -3 -17 -7z"/>
<path d="M10247 4663 c-2 -5 -5 -25 -6 -46 -2 -35 0 -38 21 -35 32 4 37 38 6
39 -15 1 -17 3 -7 6 25 6 32 43 9 43 -11 0 -21 -3 -23 -7z m23 -13 c0 -5 -4
-10 -10 -10 -5 0 -10 5 -10 10 0 6 5 10 10 10 6 0 10 -4 10 -10z m7 -56 c-3
-3 -12 -4 -19 -1 -8 3 -5 6 6 6 11 1 17 -2 13 -5z"/>
<path d="M10372 4643 c2 -20 9 -29 26 -31 19 -3 22 1 22 27 0 38 -17 41 -23 4
l-4 -28 -2 28 c0 15 -6 27 -12 27 -6 0 -9 -12 -7 -27z"/>
<path d="M10435 4638 c0 -15 5 -28 11 -28 6 0 10 10 10 21 -1 14 6 23 18 25
14 2 17 -2 13 -22 -3 -16 0 -24 9 -24 9 0 14 11 14 30 0 28 -2 30 -37 28 -35
-1 -38 -4 -38 -30z"/>
<path d="M10554 4658 c-5 -7 -2 -9 7 -6 10 4 15 -1 16 -16 0 -11 -1 -15 -4 -8
-7 17 -23 15 -23 -3 0 -9 9 -15 23 -15 20 0 23 4 19 30 -4 30 -25 40 -38 18z"/>
<path d="M10610 4656 c0 -22 26 -26 27 -5 1 11 -5 19 -13 19 -8 0 -14 -6 -14
-14z"/>
<path d="M10660 4656 c0 -8 5 -18 11 -22 8 -4 7 -9 -2 -15 -11 -7 -10 -9 4 -9
20 0 22 20 5 39 -10 11 -10 13 0 7 6 -4 12 -2 12 3 0 6 -7 11 -15 11 -8 0 -15
-6 -15 -14z"/>
<path d="M10708 4640 c3 -23 9 -30 26 -30 19 0 22 4 18 30 -2 17 -8 30 -12 30
-4 0 -5 -11 -2 -25 2 -15 0 -25 -7 -25 -6 0 -11 11 -11 25 0 14 -4 25 -8 25
-5 0 -7 -13 -4 -30z"/>
<path d="M10770 4640 c0 -26 4 -30 28 -30 26 0 28 3 24 30 -5 38 -19 39 -25 3
l-4 -28 -2 28 c-2 37 -21 35 -21 -3z"/>
<path d="M10847 4663 c-11 -10 -8 -41 4 -49 6 -3 16 -1 22 6 9 9 9 11 -2 8 -8
-2 -17 5 -19 14 -2 14 1 16 14 11 12 -4 15 -3 10 5 -8 13 -19 15 -29 5z"/>
<path d="M10894 4658 c-5 -7 -2 -9 7 -6 10 4 15 -1 16 -16 0 -11 -1 -15 -4 -8
-7 17 -23 15 -23 -3 0 -9 9 -15 23 -15 20 0 23 4 19 30 -4 30 -25 40 -38 18z"/>
<path d="M10954 4656 c-9 -24 4 -48 23 -44 12 2 18 12 18 28 0 29 -32 41 -41
16z m26 -18 c0 -16 -3 -19 -11 -11 -6 6 -8 16 -5 22 11 17 16 13 16 -11z"/>
<path d="M11040 4651 c-5 -11 -10 -24 -10 -30 0 -14 57 -14 65 -1 3 5 0 7 -8
4 -11 -4 -13 1 -10 20 6 32 -21 36 -37 7z m21 -18 c-8 -15 -10 -15 -11 -2 0
17 10 32 18 25 2 -3 -1 -13 -7 -23z"/>
<path d="M11124 4659 c-9 -15 12 -33 30 -26 9 4 16 13 16 22 0 17 -35 21 -46
4z"/>
<path d="M11185 4638 c0 -26 3 -28 41 -28 39 0 40 1 36 28 -3 26 -8 29 -40 29
-34 0 -37 -2 -37 -29z m31 -15 c-11 -11 -19 6 -11 24 8 17 8 17 12 0 3 -10 2
-21 -1 -24z m30 0 c-11 -11 -19 6 -11 24 8 17 8 17 12 0 3 -10 2 -21 -1 -24z"/>
<path d="M11284 4658 c-5 -7 -2 -9 7 -6 10 4 15 -1 16 -16 0 -11 -1 -15 -4 -8
-3 6 -9 10 -14 6 -17 -10 -9 -24 14 -24 20 0 23 4 19 30 -4 30 -25 40 -38 18z"/>
<path d="M11444 4655 c-8 -20 2 -45 18 -45 9 0 9 3 0 12 -17 17 -15 41 3 34 8
-3 15 -1 15 4 0 16 -30 11 -36 -5z"/>
<path d="M11494 4656 c-9 -24 4 -48 23 -44 12 2 18 12 18 28 0 29 -32 41 -41
16z m23 -28 c-3 -7 -5 -2 -5 12 0 14 2 19 5 13 2 -7 2 -19 0 -25z"/>
<path d="M11555 4638 c0 -26 3 -28 41 -28 39 0 40 1 36 28 -3 26 -8 29 -40 29
-34 0 -37 -2 -37 -29z m31 -15 c-11 -11 -19 6 -11 24 8 17 8 17 12 0 3 -10 2
-21 -1 -24z m30 0 c-11 -11 -19 6 -11 24 8 17 8 17 12 0 3 -10 2 -21 -1 -24z"/>
<path d="M10520 4620 c0 -5 5 -10 10 -10 6 0 10 5 10 10 0 6 -4 10 -10 10 -5
0 -10 -4 -10 -10z"/>
<path d="M10610 4620 c0 -6 7 -10 15 -10 8 0 15 2 15 4 0 2 -7 6 -15 10 -8 3
-15 1 -15 -4z"/>
<path d="M11120 4615 c0 -3 10 -10 23 -16 l22 -10 -22 5 c-13 2 -23 0 -23 -6
0 -17 45 -4 48 15 3 12 -3 17 -22 17 -14 0 -26 -2 -26 -5z"/>
<path d="M11038 4588 c6 -6 18 -8 28 -6 14 3 12 5 -9 10 -19 3 -25 2 -19 -4z"/>
<path d="M10210 4172 c-14 -20 -27 -45 -30 -55 -5 -17 -6 -17 -25 -2 -17 14
-17 16 -2 11 12 -4 17 0 17 14 0 13 -5 18 -15 14 -10 -4 -18 3 -25 20 -5 14
-12 26 -14 26 -3 0 -2 -8 1 -17 6 -16 4 -16 -9 -5 -14 11 -17 10 -20 -10 -4
-29 -54 -56 -71 -38 -7 6 -7 10 -2 9 17 -5 56 12 50 22 -4 5 -1 9 4 9 6 0 11
5 11 10 0 16 -68 2 -112 -23 -20 -11 -34 -25 -32 -32 3 -7 -6 -20 -20 -29 -15
-9 -26 -26 -27 -39 0 -21 -1 -21 -9 -2 -5 11 -9 16 -9 11 -1 -5 -8 -3 -16 4
-15 12 -60 10 -97 -5 -10 -4 -18 -3 -18 3 0 11 60 35 68 27 3 -3 14 2 24 12
12 10 18 12 18 4 0 -7 5 -9 10 -6 18 11 -1 27 -25 21 -40 -10 -175 -76 -173
-83 1 -5 -4 -24 -11 -43 -8 -19 -14 -39 -15 -45 -1 -10 -5 -11 -42 -14 -8 0
-12 -5 -9 -11 3 -5 1 -11 -4 -11 -6 -1 -17 -2 -23 -3 -7 -1 -21 1 -30 6 -10 5
-19 4 -23 -2 -3 -5 -18 -10 -33 -10 -25 0 -25 0 -6 -16 10 -8 13 -13 7 -9 -7
3 -13 1 -13 -6 0 -9 -3 -9 -14 0 -11 9 -19 9 -35 -1 -23 -14 -36 -39 -19 -35
6 1 13 -4 16 -12 3 -10 0 -12 -14 -7 -17 6 -17 5 2 -15 10 -12 14 -20 8 -16
-18 10 -40 -41 -27 -62 16 -25 -7 -67 -26 -49 -11 11 -13 11 -7 0 4 -7 -8 -4
-29 8 -36 20 -36 20 -25 0 11 -20 10 -21 -12 -24 -20 -2 -17 -34 8 -68 24 -32
24 -33 4 -40 -10 -4 -23 -20 -26 -35 -4 -15 -16 -36 -27 -45 -20 -18 -64 -94
-49 -84 6 3 15 -1 22 -9 7 -8 18 -15 26 -15 7 0 17 -8 22 -17 11 -21 -16 -52
-39 -44 -12 3 -12 2 -1 -12 8 -9 16 -31 18 -49 3 -18 14 -40 24 -49 15 -13 16
-19 7 -29 -7 -7 -7 -10 -1 -7 6 3 11 0 11 -7 0 -8 -8 -11 -21 -8 l-21 5 20
-24 c38 -45 45 -50 55 -44 6 4 9 1 8 -6 -2 -6 3 -14 11 -17 8 -2 11 0 7 6 -4
6 2 8 14 5 11 -3 18 -9 15 -13 -2 -4 7 -5 22 -2 17 3 24 1 19 -6 -3 -5 -114
-36 -246 -68 -196 -47 -241 -61 -246 -77 -8 -25 -2 -29 32 -18 16 5 72 19 124
30 105 24 125 29 254 65 65 19 93 23 102 15 7 -6 18 -8 24 -4 17 11 31 -4 21
-24 -14 -25 -224 -59 -248 -39 -14 11 -16 11 -9 -1 7 -10 3 -12 -13 -6 -12 3
-43 0 -69 -8 -26 -8 -81 -22 -122 -31 -41 -9 -81 -20 -88 -25 -9 -5 -12 -28
-10 -72 l3 -65 115 28 c268 65 396 100 490 136 14 5 29 6 49 3 5 0 9 -22 8
-47 -1 -25 4 -48 9 -52 6 -4 13 -11 15 -17 2 -5 20 -39 40 -75 34 -60 66 -140
40 -99 -9 14 -18 15 -48 8 -103 -24 -451 -104 -548 -125 -60 -14 -114 -29
-118 -33 -12 -12 12 -83 27 -78 6 2 36 10 66 17 30 7 67 16 82 21 15 4 30 4
33 -1 3 -4 25 -61 50 -125 34 -87 43 -121 35 -130 -8 -10 -8 -15 1 -21 8 -4 9
-3 5 4 -4 7 -3 12 2 12 7 0 72 -155 72 -173 0 -3 -25 -11 -55 -18 -60 -13 -72
-21 -52 -36 8 -7 32 -6 69 1 l57 12 20 -50 c11 -28 27 -76 36 -106 11 -35 28
-65 48 -82 17 -15 32 -26 33 -25 2 2 -51 149 -117 327 -173 467 -161 428 -141
434 67 18 153 36 187 38 22 2 43 7 46 11 9 12 81 -203 75 -220 -3 -8 -2 -12 2
-9 5 3 19 -24 32 -60 19 -56 21 -68 9 -76 -11 -8 -11 -9 3 -5 11 4 18 -2 22
-18 3 -13 8 -30 11 -38 5 -10 -7 -17 -42 -25 -134 -30 -183 -45 -183 -56 0
-26 17 -26 90 1 24 9 32 12 92 27 l56 14 46 -132 c25 -72 64 -187 87 -256 40
-120 50 -140 76 -140 7 0 -59 210 -157 505 l-168 505 26 6 c15 3 57 14 95 24
38 11 67 14 67 9 0 -26 76 -162 120 -215 27 -32 50 -63 50 -67 0 -5 8 -16 18
-25 10 -10 12 -13 5 -8 -17 11 -17 0 3 -58 9 -26 14 -49 12 -51 -2 -2 -37 -11
-78 -19 -118 -25 -168 -42 -147 -51 19 -8 157 21 200 42 16 8 30 13 32 11 2
-2 15 -42 30 -90 14 -49 31 -88 36 -88 21 0 20 33 -1 102 -13 40 -29 93 -36
117 l-14 44 73 -71 c39 -39 82 -79 95 -89 28 -22 23 -38 -26 -77 l-37 -30 34
37 c28 30 31 37 17 37 -10 0 -46 -28 -79 -62 -34 -35 -55 -54 -47 -43 8 11 0
7 -17 -9 -18 -16 -45 -54 -60 -85 -26 -51 -28 -64 -26 -156 3 -157 3 -156 107
-182 416 -105 869 -7 1206 262 166 133 326 340 409 528 42 98 91 254 91 293 0
21 -3 23 -32 16 -35 -7 -62 -8 -145 -2 -51 3 -53 4 -54 34 0 17 -2 38 -3 46
-3 15 -14 94 -20 140 -2 14 -6 62 -11 107 l-7 82 38 6 c22 4 57 13 79 20 22 6
69 18 104 25 l63 13 -6 41 c-4 22 -9 42 -11 44 -2 3 -44 -5 -92 -18 -48 -12
-95 -23 -103 -25 -15 -3 -194 -51 -467 -124 -34 -9 -43 -16 -43 -34 0 -35 15
-50 44 -45 23 5 26 2 32 -41 4 -25 9 -50 12 -56 4 -5 5 -21 4 -35 l-2 -25 10
24 c7 16 7 28 0 36 -8 9 -8 15 0 20 6 4 10 12 9 18 -1 7 -1 26 0 43 1 31 2 31
96 54 52 12 102 19 111 16 8 -3 13 -2 10 3 -7 10 56 22 66 12 4 -3 17 -82 29
-176 16 -119 27 -174 38 -182 12 -11 -12 -13 -130 -14 -79 -1 -148 -1 -153 0
-47 9 -108 4 -116 -9 -8 -12 -10 -12 -10 -1 0 8 -3 12 -6 9 -8 -8 15 -50 24
-44 4 2 8 -4 8 -14 0 -18 -16 -22 -27 -7 -3 4 -19 9 -35 10 -16 1 -32 7 -36
12 -5 6 -8 5 -8 -2 0 -7 -7 -13 -16 -13 -8 0 -13 -4 -9 -10 7 -12 -5 -60 -15
-60 -5 0 -7 11 -5 25 1 15 -3 25 -10 25 -7 0 -15 19 -19 42 -4 22 -10 46 -14
52 -4 6 -8 25 -9 41 -4 50 -6 55 -16 55 -5 0 -7 9 -4 20 3 11 2 18 -3 15 -4
-3 -11 5 -15 18 -7 21 -7 21 -13 2 -4 -11 -14 -21 -24 -23 -12 -2 -16 5 -14
27 2 24 -1 28 -11 19 -11 -9 -12 -6 -4 16 7 17 7 26 1 26 -12 0 -9 22 4 31 5
4 10 21 11 39 2 19 0 27 -5 20 -6 -9 -10 -7 -15 9 -4 13 -1 29 7 38 9 12 9 15
1 9 -19 -11 -15 5 5 21 11 8 12 12 3 11 -7 -2 -16 3 -19 11 -3 9 0 11 8 6 10
-6 12 -2 7 16 -4 13 -7 30 -7 36 0 7 -6 12 -12 10 -8 -1 -12 6 -10 17 2 12 -1
15 -8 11 -9 -5 -10 0 -6 16 3 13 3 18 0 12 -3 -7 -10 -13 -15 -13 -6 0 -7 5
-4 10 3 6 0 10 -7 10 -15 0 -68 56 -61 64 3 2 -3 3 -13 2 -10 -2 -23 2 -29 8
-27 27 -55 76 -55 93 0 11 -11 26 -25 33 -14 8 -23 20 -21 27 3 7 2 13 -2 13
-4 0 -8 9 -9 19 -1 13 3 18 12 15 7 -3 16 -1 20 5 4 7 14 5 31 -5 13 -9 24
-12 24 -6 0 19 41 0 81 -37 21 -21 39 -43 39 -49 0 -7 8 -20 18 -30 26 -26 42
-68 31 -81 -5 -6 -6 -9 -2 -6 9 7 43 -25 43 -42 0 -7 6 -16 14 -19 8 -3 16
-14 19 -25 3 -10 1 -17 -4 -13 -5 3 -9 0 -9 -5 0 -6 5 -11 11 -11 5 0 8 -4 4
-10 -3 -5 -3 -21 1 -35 4 -16 10 -22 14 -16 4 8 13 4 26 -11 19 -22 19 -22 0
-8 -18 13 -19 13 -15 0 65 -186 62 -180 90 -180 42 0 52 22 50 107 -2 64 -7
86 -28 123 -15 25 -37 65 -50 90 -35 67 -47 76 -82 64 -26 -11 -28 -10 -29 16
-1 26 3 28 51 34 53 7 191 37 376 82 57 14 111 27 120 29 66 13 238 59 244 65
5 4 -1 26 -12 48 l-21 40 -52 -14 c-29 -8 -60 -16 -68 -19 -8 -2 -35 -10 -60
-18 -25 -8 -110 -33 -190 -56 -80 -23 -200 -60 -267 -82 -68 -22 -127 -38
-132 -35 -5 3 -14 19 -19 36 -12 34 -22 29 108 55 72 14 99 21 260 70 41 13
140 39 220 60 164 41 172 45 161 64 -7 10 -84 -7 -377 -83 -203 -52 -379 -98
-391 -102 -14 -4 -23 -2 -23 5 0 6 7 11 16 11 8 0 12 4 9 10 -3 5 0 7 8 4 13
-5 46 2 178 37 33 8 69 52 54 67 -5 5 -63 -10 -111 -28 -11 -4 -47 -13 -80
-20 -32 -7 -65 -17 -71 -22 -9 -7 -14 -5 -19 8 -3 11 -10 28 -15 39 -9 21 -7
57 6 88 4 10 3 17 -4 17 -6 0 -11 9 -11 19 0 11 -5 23 -12 27 -7 4 -8 3 -4 -4
4 -7 3 -12 -3 -12 -5 0 -9 9 -8 19 0 11 4 18 7 16 4 -2 7 2 7 10 0 8 -5 11
-10 8 -7 -4 -7 1 -2 13 10 25 13 84 4 78 -4 -2 -10 0 -13 5 -4 5 -3 12 2 15 6
4 7 24 3 69 -1 5 -6 5 -12 1 -7 -4 -10 -1 -7 7 3 8 -2 21 -11 29 -13 13 -12
15 8 18 15 2 21 9 17 18 -3 8 0 14 7 15 7 0 3 4 -8 8 -12 5 -23 4 -27 -3 -6
-8 -8 -7 -8 2 0 19 -28 14 -33 -5 -4 -20 -3 -22 -23 35 -4 9 -6 29 -5 44 1 14
-3 29 -9 33 -5 3 -8 10 -6 14 3 4 -14 8 -36 10 -23 1 -44 -3 -48 -9 -13 -20
-78 -30 -92 -13 -6 8 -20 12 -30 10 -10 -3 -21 -1 -24 4 -3 5 0 9 6 9 7 0 6 5
-2 14 -7 8 -17 11 -22 8 -5 -3 -5 1 0 9 5 8 7 22 6 31 -2 12 11 21 52 34 31
10 56 20 56 23 0 15 -66 9 -84 -7 -18 -16 -19 -16 -13 1 5 13 1 17 -21 17 -20
0 -33 -10 -52 -38z m52 5 c-7 -8 -8 -17 -4 -22 4 -4 -4 -2 -18 6 l-25 14 23 3
c12 2 22 8 22 14 0 6 3 8 6 5 4 -4 2 -13 -4 -20z m-42 -44 c0 -10 -20 -40 -20
-31 0 3 -3 13 -6 22 -4 11 -1 16 10 16 9 0 16 -3 16 -7z m-117 -34 c-5 -5 -17
-7 -27 -3 -15 6 -14 8 6 18 24 12 38 2 21 -15z m228 -46 c0 -5 2 -16 4 -25 3
-14 0 -15 -16 -5 -23 14 -25 37 -4 37 8 0 15 -3 16 -7z m45 -33 c-1 -17 -16
-31 -16 -15 0 3 0 12 0 20 0 8 4 15 9 15 4 0 8 -9 7 -20z m44 10 c-14 -4 -20
-8 -15 -9 6 -1 15 -9 21 -19 10 -15 7 -17 -17 -18 -19 -1 -26 3 -23 12 2 8 6
21 9 29 2 8 15 15 27 14 22 -1 22 -1 -2 -9z m78 -85 c-3 -3 -9 2 -12 12 -6 14
-5 15 5 6 7 -7 10 -15 7 -18z m82 -20 c0 -9 -9 -15 -22 -15 -21 0 -21 0 -2 15
24 18 24 18 24 0z m-1260 -291 c0 -2 -7 -4 -15 -4 -8 0 -15 4 -15 10 0 5 7 7
15 4 8 -4 15 -8 15 -10z m1487 -948 c0 -8 -8 -11 -19 -8 -10 2 -18 7 -18 11 0
4 8 7 18 8 10 1 19 -4 19 -11z m-546 -92 c12 -14 11 -16 -5 -13 -11 2 -21 10
-24 17 -5 17 13 15 29 -4z m289 -255 c0 -18 -20 -26 -33 -13 -8 8 15 44 25 38
4 -3 8 -14 8 -25z m-42 -11 c22 -22 14 -48 -18 -59 -16 -6 -30 -17 -30 -24 0
-14 -60 -46 -72 -39 -4 3 -8 1 -8 -4 0 -23 -118 -40 -132 -20 -16 26 -9 40 17
36 17 -4 25 -1 25 9 0 19 41 33 63 21 13 -7 17 -5 17 10 0 22 42 47 64 39 9
-4 16 -1 16 6 0 16 20 37 35 37 6 0 16 -5 23 -12z m705 -38 c3 -11 0 -23 -6
-27 -7 -3 -9 -3 -5 2 4 4 3 16 -3 26 -5 11 -6 19 -1 19 6 0 12 -9 15 -20z m10
-105 c-3 -9 -8 -14 -10 -11 -3 3 -2 9 2 15 9 16 15 13 8 -4z"/>
<path d="M10390 4202 c0 -4 9 -8 20 -9 11 -1 18 2 15 8 -7 11 -35 12 -35 1z"/>
<path d="M10500 4171 c-8 -6 -17 -8 -20 -6 -3 2 -6 -5 -6 -16 0 -10 3 -19 6
-19 8 0 70 39 70 45 0 8 -34 5 -50 -4z"/>
<path d="M10621 4161 c-9 -6 -10 -14 -4 -25 8 -15 11 -15 29 5 10 12 14 19 7
16 -6 -4 -13 -3 -15 3 -2 5 -9 6 -17 1z"/>
<path d="M10420 4152 c0 -6 -11 -14 -24 -18 -29 -7 -24 -33 5 -31 19 1 38 41
25 54 -3 4 -6 1 -6 -5z"/>
<path d="M10675 4138 c-4 -13 -7 -33 -7 -46 1 -12 -3 -20 -8 -17 -6 4 -10 16
-10 28 l0 21 -15 -21 c-10 -14 -13 -32 -9 -52 7 -31 18 -39 29 -21 11 18 45
11 45 -9 0 -22 20 -40 21 -19 0 7 4 4 9 -7 7 -16 9 -17 9 -3 1 9 -6 23 -14 32
-8 8 -15 23 -15 33 0 15 2 16 10 3 8 -13 10 -13 10 2 0 9 6 19 13 22 6 3 -2 3
-20 0 -40 -7 -51 11 -22 37 20 17 21 22 9 29 -22 14 -27 12 -35 -12z"/>
<path d="M9885 4120 c22 -24 22 -24 27 -2 4 13 -1 18 -20 20 -25 2 -25 2 -7
-18z"/>
<path d="M10335 4120 c-3 -5 -2 -10 4 -10 5 0 13 5 16 10 3 6 2 10 -4 10 -5 0
-13 -4 -16 -10z"/>
<path d="M10730 4119 c0 -5 5 -7 10 -4 6 3 10 8 10 11 0 2 -4 4 -10 4 -5 0
-10 -5 -10 -11z"/>
<path d="M10760 4103 c0 -16 6 -21 20 -20 22 1 24 5 10 27 -9 13 -10 13 -10 0
0 -13 -1 -13 -10 0 -8 12 -10 11 -10 -7z"/>
<path d="M10805 4110 c-4 -6 0 -13 8 -16 8 -3 14 -13 13 -22 -2 -9 -6 -15 -11
-14 -4 2 -12 -2 -16 -10 -7 -11 -11 -10 -19 2 -8 12 -10 9 -10 -14 0 -24 2
-27 15 -16 8 7 15 8 15 3 0 -5 14 -14 30 -20 25 -9 30 -17 30 -44 0 -39 5 -36
13 9 4 19 3 31 -3 27 -5 -3 -6 10 -3 31 5 29 3 35 -7 29 -10 -6 -11 -2 -7 17
5 20 2 27 -18 36 -15 7 -26 8 -30 2z"/>
<path d="M10514 4098 c-4 -7 -3 -8 4 -4 8 5 12 -2 12 -18 0 -29 27 -36 37 -11
8 22 -6 33 -17 15 -8 -12 -10 -10 -10 8 0 24 -14 29 -26 10z"/>
<path d="M10875 4082 c6 -4 11 -20 13 -37 1 -16 3 -36 4 -42 2 -17 48 -60 48
-45 0 7 8 12 19 12 14 0 17 6 13 25 -2 14 -1 25 4 23 5 -2 9 2 9 7 0 6 -12 9
-27 7 -16 -2 -28 2 -28 7 0 6 6 11 13 11 14 1 -52 39 -68 39 -7 1 -7 -2 0 -7z
m45 -57 c7 -9 8 -15 2 -15 -5 0 -12 7 -16 15 -3 8 -4 15 -2 15 2 0 9 -7 16
-15z m20 -39 c0 -3 -4 -8 -10 -11 -5 -3 -10 -1 -10 4 0 6 5 11 10 11 6 0 10
-2 10 -4z"/>
<path d="M9600 4016 c0 -2 9 -6 20 -9 11 -3 20 -1 20 4 0 5 -9 9 -20 9 -11 0
-20 -2 -20 -4z"/>
<path d="M9570 4000 c-8 -5 -11 -12 -7 -16 4 -4 13 -2 19 4 15 15 7 24 -12 12z"/>
<path d="M10615 3969 c4 -6 10 -8 13 -5 3 3 11 1 19 -5 10 -9 13 -8 13 5 0 11
-9 16 -26 16 -15 0 -23 -4 -19 -11z"/>
<path d="M10901 3944 c0 -11 3 -14 6 -6 3 7 2 16 -1 19 -3 4 -6 -2 -5 -13z"/>
<path d="M9556 3937 c3 -10 9 -15 12 -12 3 3 0 11 -7 18 -10 9 -11 8 -5 -6z"/>
<path d="M10901 3913 c0 -5 4 -17 9 -28 8 -18 9 -17 9 8 1 15 -3 27 -9 27 -5
0 -10 -3 -9 -7z"/>
<path d="M10963 3865 c-7 -8 -9 -16 -4 -19 5 -3 12 1 15 10 8 22 4 25 -11 9z"/>
<path d="M11114 3850 c0 -26 1 -27 28 -18 25 9 39 36 21 39 -44 8 -49 6 -49
-21z"/>
<path d="M11090 3845 c0 -18 -21 -20 -39 -2 -11 10 -13 10 -7 0 4 -7 2 -13 -3
-13 -6 0 -11 -6 -11 -13 0 -9 11 -12 35 -9 29 3 35 8 35 28 0 13 -2 24 -5 24
-3 0 -5 -7 -5 -15z"/>
<path d="M11180 3850 c0 -5 5 -10 11 -10 5 0 7 5 4 10 -3 6 -8 10 -11 10 -2 0
-4 -4 -4 -10z"/>
<path d="M10920 3810 c4 -23 10 -43 13 -46 10 -11 17 48 7 66 -18 33 -28 23
-20 -20z"/>
<path d="M11218 3843 c7 -3 16 -2 19 1 4 3 -2 6 -13 5 -11 0 -14 -3 -6 -6z"/>
<path d="M10975 3830 c-3 -5 1 -10 10 -10 9 0 13 5 10 10 -3 6 -8 10 -10 10
-2 0 -7 -4 -10 -10z"/>
<path d="M10805 3820 c-18 -8 -18 -9 -2 -9 10 -1 16 -5 13 -9 -2 -4 0 -14 6
-22 8 -12 9 -12 4 3 -7 21 -3 21 33 2 26 -13 30 -13 42 2 12 15 11 16 -8 11
-17 -5 -23 -2 -23 10 0 13 -2 14 -9 4 -7 -11 -9 -11 -14 2 -7 18 -13 19 -42 6z"/>
<path d="M10765 3800 c5 -17 2 -20 -24 -20 -39 0 -61 -9 -61 -26 0 -19 17 -18
28 3 7 11 15 14 28 8 41 -18 50 -14 46 21 -2 19 -8 34 -14 34 -5 0 -6 -9 -3
-20z"/>
<path d="M10936 3708 c9 -57 14 -61 14 -10 0 22 -5 44 -10 47 -7 4 -8 -8 -4
-37z"/>
<path d="M10952 3630 c0 -14 4 -36 8 -50 6 -20 8 -21 8 -5 0 11 -4 34 -8 50
-7 27 -8 27 -8 5z"/>
<path d="M11435 3589 c-51 -16 -69 -21 -102 -26 -18 -3 -33 -9 -33 -15 0 -5 8
-7 18 -4 9 3 47 13 85 22 37 9 67 20 67 25 0 5 -1 9 -2 8 -2 0 -16 -5 -33 -10z"/>
<path d="M11225 3539 c-22 -5 -44 -15 -50 -21 -7 -7 -2 -9 19 -4 15 4 41 10
57 13 16 3 29 9 29 14 0 10 -1 10 -55 -2z"/>
<path d="M11149 3516 c-2 -3 -18 -7 -34 -10 -102 -19 -125 -25 -125 -36 0 -4
37 1 83 13 86 21 93 24 85 32 -2 3 -7 3 -9 1z"/>
<path d="M9135 3411 c-3 -5 -2 -12 3 -15 5 -3 9 1 9 9 0 17 -3 19 -12 6z"/>
<path d="M9072 3394 c10 -10 20 -16 22 -13 3 3 -5 11 -17 18 -21 13 -21 12 -5
-5z"/>
<path d="M10495 3380 c-3 -5 1 -10 10 -10 9 0 13 5 10 10 -3 6 -8 10 -10 10
-2 0 -7 -4 -10 -10z"/>
<path d="M9000 3255 c0 -12 31 -78 34 -74 7 6 -18 79 -26 79 -5 0 -8 -2 -8 -5z"/>
<path d="M10697 3207 c-3 -8 1 -14 8 -14 7 0 11 6 8 14 -3 7 -6 13 -8 13 -2 0
-5 -6 -8 -13z"/>
<path d="M136 3159 c-20 -16 -26 -29 -26 -59 0 -72 84 -106 135 -55 73 72 -28
178 -109 114z m84 -8 c23 -44 5 -121 -28 -121 -10 0 -23 5 -30 12 -16 16 -16
100 0 116 18 18 46 14 58 -7z"/>
<path d="M295 3100 c0 -77 1 -80 24 -80 17 0 22 4 17 16 -3 9 -6 45 -6 80 0
54 -3 64 -17 64 -16 0 -18 -10 -18 -80z"/>
<path d="M1915 3156 c-35 -35 -34 -87 1 -115 44 -35 124 -25 124 14 0 13 6 26
13 28 6 3 -8 5 -33 5 -25 0 -39 -2 -32 -5 6 -2 12 -16 12 -29 0 -19 -5 -24
-25 -24 -29 0 -45 25 -45 70 0 43 17 70 43 70 27 0 40 -9 55 -35 10 -18 11
-17 12 10 0 29 -2 30 -50 33 -42 2 -54 -1 -75 -22z"/>
<path d="M2891 3162 c-9 -17 -9 -28 4 -51 20 -40 20 -41 -12 -41 -18 -1 -35
-10 -46 -25 -18 -25 -18 -25 10 -25 20 0 24 3 14 9 -20 13 -4 31 29 31 28 0
49 -25 27 -34 -7 -2 4 -5 24 -5 l36 -1 -22 48 c-11 26 -28 63 -37 82 -15 34
-15 34 -27 12z"/>
<path d="M4828 3173 c8 -3 12 -28 12 -73 0 -45 -4 -70 -12 -74 -7 -3 16 -4 51
-3 52 3 67 8 82 26 27 33 24 77 -6 106 -20 21 -33 25 -82 24 -32 0 -52 -3 -45
-6z m96 -25 c9 -12 16 -34 16 -48 0 -31 -26 -70 -46 -70 -11 0 -14 16 -14 70
0 76 14 91 44 48z"/>
<path d="M5685 3100 c0 -73 2 -80 20 -80 19 0 20 6 17 80 -3 67 -6 80 -20 80
-15 0 -17 -12 -17 -80z"/>
<path d="M6038 3151 c3 -26 1 -29 -16 -24 -14 3 -25 -3 -37 -21 -25 -38 -5
-86 35 -86 13 0 13 2 1 9 -15 10 -21 74 -9 87 15 14 28 -10 28 -53 0 -37 3
-44 16 -39 9 3 21 6 27 6 8 0 7 4 -1 12 -7 7 -12 39 -12 75 0 54 -3 63 -18 63
-15 0 -18 -6 -14 -29z"/>
<path d="M6393 3169 c13 -8 17 -23 17 -69 0 -46 -4 -61 -17 -69 -14 -8 -7 -10
32 -10 39 0 46 2 33 10 -22 13 -25 69 -3 69 7 0 19 -8 24 -17 8 -14 10 -10 10
22 0 32 -2 36 -10 23 -16 -29 -39 -22 -39 12 0 25 4 30 24 30 14 0 32 -7 40
-16 15 -14 16 -14 16 5 0 19 -6 21 -72 21 -55 -1 -69 -3 -55 -11z"/>
<path d="M6668 3173 c8 -3 12 -28 12 -73 0 -45 -4 -70 -12 -73 -7 -3 1 -6 17
-6 l30 -1 -3 80 c-4 79 -4 80 -30 79 -15 0 -21 -3 -14 -6z"/>
<path d="M6735 3100 c0 -79 0 -80 25 -80 25 0 25 0 22 80 -3 74 -5 80 -25 80
-21 0 -22 -5 -22 -80z"/>
<path d="M6896 3161 c-23 -25 -10 -51 40 -80 19 -12 34 -27 32 -34 -8 -21 -45
-19 -67 4 l-21 23 0 -25 c0 -21 5 -24 37 -26 82 -4 101 49 33 92 -22 14 -40
30 -40 35 0 17 27 22 49 10 12 -6 21 -7 21 -1 0 10 -24 21 -49 21 -10 0 -26
-9 -35 -19z"/>
<path d="M7325 3100 c0 -75 1 -80 21 -80 17 0 20 5 16 25 -2 14 0 25 6 25 10
0 26 -29 24 -42 -1 -5 10 -8 24 -8 l26 0 -26 34 -26 35 26 20 27 21 -27 0
c-16 0 -25 -4 -21 -10 7 -12 -12 -40 -26 -40 -5 0 -9 23 -9 50 0 41 -3 50 -17
50 -16 0 -18 -10 -18 -80z"/>
<path d="M11505 3170 c4 -6 11 -8 16 -5 14 9 11 15 -7 15 -8 0 -12 -5 -9 -10z"/>
<path d="M405 3159 c-11 -17 -2 -18 19 -3 17 12 17 14 4 14 -9 0 -20 -5 -23
-11z"/>
<path d="M1755 3159 c-11 -17 -2 -18 19 -3 17 12 17 14 4 14 -9 0 -20 -5 -23
-11z"/>
<path d="M3577 3163 c-13 -13 -7 -19 21 -17 43 2 49 5 27 14 -25 11 -40 12
-48 3z"/>
<path d="M7036 3148 c-23 -27 -23 -94 0 -118 12 -12 16 -12 32 4 9 10 11 16 5
12 -10 -5 -13 4 -13 33 0 26 5 41 13 41 8 0 9 2 1 8 -7 4 -13 15 -15 25 -4 16
-6 16 -23 -5z"/>
<path d="M9030 3165 c0 -9 30 -65 35 -65 7 0 -16 60 -26 66 -5 3 -9 2 -9 -1z"/>
<path d="M11285 3150 c3 -5 8 -10 11 -10 2 0 4 5 4 10 0 6 -5 10 -11 10 -5 0
-7 -4 -4 -10z"/>
<path d="M10670 3141 c0 -6 4 -13 10 -16 6 -3 7 1 4 9 -7 18 -14 21 -14 7z"/>
<path d="M378 3119 c-22 -12 -23 -29 -3 -29 8 0 15 7 15 16 0 32 25 6 27 -27
0 -19 1 -40 2 -47 1 -8 9 -12 18 -10 14 3 17 12 15 43 -6 61 -31 80 -74 54z"/>
<path d="M605 3075 c0 -48 2 -55 20 -55 19 0 23 21 16 103 -1 4 -9 7 -18 7
-15 0 -18 -9 -18 -55z"/>
<path d="M655 3120 c-3 -5 -1 -10 5 -10 8 0 11 -15 8 -45 l-3 -45 56 0 56 0
-4 33 c-8 63 -13 77 -31 77 -10 0 -23 -5 -29 -11 -8 -8 -13 -8 -17 0 -9 14
-33 14 -41 1z m80 -51 c0 -24 -5 -34 -15 -34 -16 0 -25 37 -16 62 10 26 31 8
31 -28z"/>
<path d="M816 3114 c-29 -28 -13 -94 23 -94 28 0 33 12 11 27 -29 20 -25 33
10 33 33 0 35 3 20 31 -13 23 -43 25 -64 3z m44 -9 c0 -8 -7 -15 -15 -15 -16
0 -20 12 -8 23 11 12 23 8 23 -8z"/>
<path d="M907 3122 c6 -4 13 -28 15 -52 l3 -45 45 -2 45 -2 -3 55 c-3 42 -7
54 -20 54 -13 0 -17 -10 -17 -42 0 -24 -5 -43 -12 -45 -9 -3 -13 9 -13 41 0
44 -1 46 -27 46 -17 0 -23 -3 -16 -8z"/>
<path d="M1105 3075 c0 -48 2 -55 20 -55 19 0 23 21 16 103 -1 4 -9 7 -18 7
-15 0 -18 -9 -18 -55z"/>
<path d="M1155 3121 c-3 -6 -1 -11 5 -11 8 0 11 -15 8 -45 -3 -40 -1 -45 17
-45 19 0 20 5 15 52 -4 39 -10 54 -22 56 -9 2 -19 -2 -23 -7z"/>
<path d="M1243 3104 c-15 -24 -15 -29 -2 -53 27 -48 89 -31 89 24 0 53 -58 73
-87 29z m52 -29 c0 -21 -5 -40 -11 -42 -15 -5 -25 35 -17 65 9 35 28 20 28
-23z"/>
<path d="M1355 3075 l0 -55 55 0 55 0 0 42 c0 26 5 43 14 46 10 3 12 -6 10
-42 -4 -41 -2 -46 16 -46 18 0 20 5 16 51 -3 53 -20 71 -46 49 -12 -10 -18
-10 -30 0 -8 7 -23 9 -32 5 -17 -6 -17 -7 0 -16 11 -7 17 -22 17 -45 0 -28 -3
-35 -17 -32 -13 2 -18 14 -19 38 -2 57 -3 60 -21 60 -15 0 -18 -9 -18 -55z"/>
<path d="M1565 3106 c-21 -32 -10 -74 21 -82 32 -8 54 7 26 17 -31 12 -28 39
3 39 27 0 33 18 13 38 -19 19 -46 14 -63 -12z m45 -1 c0 -8 -7 -15 -15 -15 -9
0 -12 6 -9 15 4 8 10 15 15 15 5 0 9 -7 9 -15z"/>
<path d="M1736 3114 c-29 -28 -13 -94 23 -94 28 0 33 12 11 27 -29 20 -25 33
10 33 33 0 35 3 20 31 -13 23 -43 25 -64 3z m44 -9 c0 -8 -7 -15 -15 -15 -16
0 -20 12 -8 23 11 12 23 8 23 -8z"/>
<path d="M2085 3106 c-21 -32 -10 -74 21 -82 32 -8 54 7 26 17 -31 12 -28 39
3 39 27 0 33 18 13 38 -19 19 -46 14 -63 -12z m45 -1 c0 -8 -7 -15 -15 -15 -9
0 -12 6 -9 15 4 8 10 15 15 15 5 0 9 -7 9 -15z"/>
<path d="M2196 3114 c-32 -31 -10 -94 33 -94 23 0 51 31 51 57 0 23 -29 53
-53 53 -8 0 -23 -7 -31 -16z m49 -13 c8 -26 -5 -73 -19 -68 -12 4 -20 51 -12
73 8 20 24 17 31 -5z"/>
<path d="M2318 3078 c31 -66 28 -64 42 -38 9 18 9 24 0 30 -7 4 -13 19 -13 34
-2 21 -7 26 -28 26 l-26 0 25 -52z"/>
<path d="M2376 3115 c4 -8 7 -15 9 -15 2 0 5 7 9 15 3 9 0 15 -9 15 -9 0 -12
-6 -9 -15z"/>
<path d="M2438 3119 c-22 -12 -23 -29 -3 -29 8 0 15 7 15 16 0 32 25 6 27 -27
0 -19 1 -40 2 -47 1 -8 9 -12 18 -10 14 3 17 12 15 43 -6 61 -31 80 -74 54z"/>
<path d="M2545 3075 c0 -48 2 -55 20 -55 19 0 23 21 16 103 -1 4 -9 7 -18 7
-15 0 -18 -9 -18 -55z"/>
<path d="M2595 3121 c-3 -6 -1 -11 5 -11 8 0 11 -15 8 -45 -3 -40 -1 -45 17
-45 19 0 20 5 15 52 -4 39 -10 54 -22 56 -9 2 -19 -2 -23 -7z"/>
<path d="M2685 3106 c-21 -32 -10 -74 21 -82 32 -8 54 7 26 17 -31 12 -28 39
3 39 27 0 33 18 13 38 -19 19 -46 14 -63 -12z m45 -1 c0 -8 -7 -15 -15 -15 -9
0 -12 6 -9 15 4 8 10 15 15 15 5 0 9 -7 9 -15z"/>
<path d="M3007 3123 c-15 -14 -6 -42 20 -61 31 -22 24 -44 -7 -24 -16 10 -20
10 -20 -1 0 -12 28 -16 63 -9 17 4 5 42 -20 61 -24 17 -26 22 -13 31 13 8 13
10 -1 10 -9 0 -19 -3 -22 -7z"/>
<path d="M3100 3114 c-11 -12 -8 -20 16 -45 24 -25 26 -32 14 -40 -12 -8 -11
-9 5 -7 30 5 31 45 3 67 -13 11 -20 23 -16 27 4 4 14 1 23 -6 12 -10 15 -10
15 2 0 19 -45 21 -60 2z"/>
<path d="M3187 3122 c6 -4 13 -28 15 -52 l3 -45 45 -2 45 -2 -3 55 c-3 42 -7
54 -20 54 -13 0 -17 -10 -17 -42 0 -24 -5 -43 -12 -45 -9 -3 -13 9 -13 41 0
44 -1 46 -27 46 -17 0 -23 -3 -16 -8z"/>
<path d="M3325 3075 c0 -48 2 -55 20 -55 19 0 23 21 16 103 -1 4 -9 7 -18 7
-15 0 -18 -9 -18 -55z"/>
<path d="M3375 3121 c-3 -6 -1 -11 5 -11 8 0 11 -15 8 -45 -3 -40 -1 -45 17
-45 19 0 20 5 15 52 -4 39 -10 54 -22 56 -9 2 -19 -2 -23 -7z"/>
<path d="M3466 3108 c-21 -30 -20 -45 7 -72 27 -29 32 -46 15 -58 -9 -7 -7 -8
7 -6 13 2 20 11 20 25 1 11 6 28 13 36 11 13 10 15 -7 10 -16 -4 -23 1 -31 21
-10 27 -4 56 11 56 5 0 9 -4 9 -10 0 -5 7 -10 16 -10 26 0 10 25 -18 28 -18 2
-31 -4 -42 -20z"/>
<path d="M3578 3119 c-22 -12 -23 -29 -3 -29 8 0 15 7 15 16 0 32 25 6 27 -27
0 -19 1 -40 2 -47 1 -8 9 -12 18 -10 14 3 17 12 15 43 -6 61 -31 80 -74 54z"/>
<path d="M3696 3114 c-32 -31 -10 -94 33 -94 23 0 51 31 51 57 0 23 -29 53
-53 53 -8 0 -23 -7 -31 -16z m49 -13 c8 -26 -5 -73 -19 -68 -12 4 -20 51 -12
73 8 20 24 17 31 -5z"/>
<path d="M3876 3114 c-29 -28 -13 -94 23 -94 28 0 33 12 11 27 -29 20 -25 33
10 33 33 0 35 3 20 31 -13 23 -43 25 -64 3z m44 -9 c0 -8 -7 -15 -15 -15 -16
0 -20 12 -8 23 11 12 23 8 23 -8z"/>
<path d="M4037 3123 c-14 -13 -6 -43 13 -55 23 -14 26 -34 8 -42 -7 -3 -4 -5
6 -3 10 1 24 10 30 20 9 15 6 22 -19 42 -16 13 -26 27 -22 31 3 4 13 1 22 -6
8 -7 15 -8 15 -2 0 16 -40 28 -53 15z"/>
<path d="M4136 3114 c-32 -31 -10 -94 33 -94 23 0 51 31 51 57 0 23 -29 53
-53 53 -8 0 -23 -7 -31 -16z m49 -13 c8 -26 -5 -73 -19 -68 -12 4 -20 51 -12
73 8 20 24 17 31 -5z"/>
<path d="M4250 3078 l5 -53 45 -2 45 -2 -3 54 c-3 43 -7 55 -20 55 -13 0 -17
-10 -17 -42 0 -24 -5 -43 -12 -45 -9 -3 -13 9 -13 41 0 37 -3 46 -18 46 -15 0
-17 -7 -12 -52z"/>
<path d="M4438 3088 c5 -56 14 -65 65 -66 l42 -1 -3 54 c-3 49 -6 55 -25 55
-20 0 -22 -4 -18 -46 2 -36 0 -45 -10 -42 -8 3 -15 22 -17 46 -2 32 -7 42 -20
42 -15 0 -17 -7 -14 -42z"/>
<path d="M4568 3123 c7 -3 12 -23 12 -48 0 -25 -5 -45 -12 -48 -7 -3 1 -6 17
-6 29 -1 30 0 28 46 -1 27 -2 51 -2 56 -1 4 -13 7 -28 6 -16 0 -22 -3 -15 -6z"/>
<path d="M4625 3120 c-3 -5 -1 -10 5 -10 8 0 11 -15 8 -45 -3 -40 -1 -45 17
-45 17 0 20 7 20 42 0 26 5 43 14 46 10 3 12 -6 10 -42 -4 -45 -4 -46 25 -46
23 0 27 3 18 12 -7 7 -12 29 -12 50 0 42 -20 59 -44 39 -10 -8 -16 -9 -21 -1
-8 13 -32 13 -40 0z"/>
<path d="M5016 3114 c-29 -28 -13 -94 23 -94 28 0 33 12 11 27 -29 20 -25 33
10 33 33 0 35 3 20 31 -13 23 -43 25 -64 3z m44 -9 c0 -8 -7 -15 -15 -15 -16
0 -20 12 -8 23 11 12 23 8 23 -8z"/>
<path d="M5117 3123 c-14 -13 -6 -43 13 -55 23 -14 26 -34 8 -42 -7 -3 -4 -5
6 -3 10 1 24 10 30 20 9 15 6 22 -19 42 -16 13 -26 27 -22 31 3 4 13 1 22 -6
8 -7 15 -8 15 -2 0 16 -40 28 -53 15z"/>
<path d="M5216 3114 c-29 -28 -13 -94 23 -94 28 0 33 12 11 27 -29 20 -25 33
10 33 33 0 35 3 20 31 -13 23 -43 25 -64 3z m44 -9 c0 -8 -7 -15 -15 -15 -16
0 -20 12 -8 23 11 12 23 8 23 -8z"/>
<path d="M5308 3123 c7 -3 12 -23 12 -48 0 -25 -5 -45 -12 -48 -7 -3 1 -6 17
-6 28 -1 30 1 30 36 0 21 5 38 10 38 6 0 10 -17 10 -38 0 -31 4 -37 20 -37 19
0 20 5 15 52 l-5 53 -55 2 c-30 1 -49 -1 -42 -4z"/>
<path d="M5458 3078 c31 -66 28 -64 42 -38 9 18 9 24 0 30 -7 4 -13 19 -13 34
-2 21 -7 26 -28 26 l-26 0 25 -52z"/>
<path d="M5516 3115 c4 -8 7 -15 9 -15 2 0 5 7 9 15 3 9 0 15 -9 15 -9 0 -12
-6 -9 -15z"/>
<path d="M5576 3114 c-32 -31 -10 -94 33 -94 23 0 51 31 51 57 0 23 -29 53
-53 53 -8 0 -23 -7 -31 -16z m49 -13 c8 -26 -5 -73 -19 -68 -12 4 -20 51 -12
73 8 20 24 17 31 -5z"/>
<path d="M5762 3083 c27 -64 32 -68 46 -38 7 15 8 24 3 20 -6 -3 -13 10 -17
30 -5 28 -11 35 -30 35 l-23 0 21 -47z"/>
<path d="M5825 3120 c4 -6 11 -8 16 -5 14 9 11 15 -7 15 -8 0 -12 -5 -9 -10z"/>
<path d="M5888 3119 c-21 -12 -24 -69 -6 -87 16 -16 43 -15 57 1 8 11 6 13
-11 13 -14 -1 -24 6 -26 17 -3 13 3 17 28 17 31 0 32 1 18 23 -18 26 -36 31
-60 16z m40 -17 c2 -7 -3 -12 -12 -12 -9 0 -16 7 -16 16 0 17 22 14 28 -4z"/>
<path d="M6122 3118 c-7 -7 -12 -26 -12 -43 0 -36 15 -55 45 -55 30 0 45 19
45 55 0 36 -15 55 -45 55 -12 0 -26 -5 -33 -12z m48 -43 c0 -33 -4 -45 -15
-45 -11 0 -15 12 -15 45 0 33 4 45 15 45 11 0 15 -12 15 -45z"/>
<path d="M6235 3075 c0 -54 0 -55 30 -55 20 0 26 3 17 9 -8 5 -12 22 -10 42 2
29 7 34 26 32 14 -2 22 3 22 12 0 18 -21 20 -38 3 -9 -9 -12 -9 -12 0 0 7 -8
12 -17 12 -15 0 -18 -9 -18 -55z"/>
<path d="M6540 3087 c9 -59 14 -64 62 -65 l43 -1 -3 54 c-3 49 -6 55 -25 55
-20 0 -22 -4 -19 -45 3 -28 0 -45 -7 -45 -6 0 -11 19 -11 45 0 41 -2 45 -23
45 -22 0 -23 -3 -17 -43z"/>
<path d="M7113 3124 c-19 -8 -16 -34 3 -34 10 0 14 6 10 15 -3 9 0 15 8 15 9
0 14 -14 14 -41 1 -23 5 -46 11 -52 18 -18 27 2 22 50 -5 42 -9 48 -31 50 -14
1 -31 -1 -37 -3z"/>
<path d="M7233 3118 c-21 -27 -23 -51 -8 -74 18 -27 47 -31 65 -9 11 13 10 14
-5 9 -21 -8 -35 11 -35 49 0 29 9 34 28 15 13 -13 27 -5 17 11 -9 15 -50 14
-62 -1z"/>
<path d="M11335 3120 c-8 -13 5 -13 25 0 13 8 13 10 -2 10 -9 0 -20 -4 -23
-10z"/>
<path d="M2866 3105 c-9 -26 -7 -32 5 -12 6 10 9 21 6 23 -2 3 -7 -2 -11 -11z"/>
<path d="M11388 3113 c6 -2 18 -2 25 0 6 3 1 5 -13 5 -14 0 -19 -2 -12 -5z"/>
<path d="M378 3069 c-33 -19 -16 -58 20 -44 14 5 14 8 2 15 -11 7 -11 11 -1
24 15 18 5 20 -21 5z"/>
<path d="M2438 3069 c-33 -19 -16 -58 20 -44 14 5 14 8 2 15 -11 7 -11 11 -1
24 15 18 5 20 -21 5z"/>
<path d="M3578 3069 c-33 -19 -16 -58 20 -44 14 5 14 8 2 15 -11 7 -11 11 -1
24 15 18 5 20 -21 5z"/>
<path d="M6800 3070 c0 -5 14 -10 30 -10 17 0 30 5 30 10 0 6 -13 10 -30 10
-16 0 -30 -4 -30 -10z"/>
<path d="M7107 3062 c-10 -11 -13 -23 -8 -31 13 -21 34 -8 35 22 2 32 -5 34
-27 9z"/>
<path d="M9240 3066 c0 -9 5 -16 10 -16 6 0 10 4 10 9 0 6 -4 13 -10 16 -5 3
-10 -1 -10 -9z"/>
<path d="M9270 3070 c0 -5 5 -10 11 -10 5 0 7 5 4 10 -3 6 -8 10 -11 10 -2 0
-4 -4 -4 -10z"/>
<path d="M9160 3058 c-12 -4 -33 -10 -48 -13 -75 -13 -192 -51 -192 -62 0 -7
5 -13 10 -13 6 0 10 5 10 11 0 5 4 8 9 4 12 -7 201 36 201 46 0 4 8 5 18 3 9
-2 28 5 42 16 l25 20 -27 -2 c-15 -1 -37 -6 -48 -10z"/>
<path d="M487 3044 c-12 -13 -8 -24 10 -24 14 0 14 -2 -2 -20 -10 -11 -13 -20
-8 -20 17 0 35 27 31 46 -3 19 -20 28 -31 18z"/>
<path d="M3090 3040 c0 -5 5 -10 11 -10 5 0 7 5 4 10 -3 6 -8 10 -11 10 -2 0
-4 -4 -4 -10z"/>
<path d="M8948 2953 c7 -3 16 -2 19 1 4 3 -2 6 -13 5 -11 0 -14 -3 -6 -6z"/>
<path d="M11636 2945 c4 -8 8 -15 10 -15 2 0 4 7 4 15 0 8 -4 15 -10 15 -5 0
-7 -7 -4 -15z"/>
<path d="M11232 2897 c-8 -10 -6 -13 7 -13 11 0 17 6 14 13 -3 7 -6 13 -8 13
-1 0 -7 -6 -13 -13z"/>
<path d="M11325 2900 c-3 -5 -1 -10 4 -10 6 0 11 5 11 10 0 6 -2 10 -4 10 -3
0 -8 -4 -11 -10z"/>
<path d="M106 2805 c-5 -15 18 -45 35 -45 5 0 9 -7 9 -16 0 -12 -6 -15 -21
-11 -16 4 -19 3 -11 -5 15 -15 42 -2 42 20 0 11 -12 24 -27 31 -19 9 -23 15
-15 23 8 8 15 8 27 -2 12 -10 15 -10 15 2 0 18 -47 21 -54 3z"/>
<path d="M390 2810 c20 -13 33 -13 25 0 -3 6 -14 10 -23 10 -15 0 -15 -2 -2
-10z"/>
<path d="M748 2815 c-4 -4 -4 -13 -1 -21 3 -10 0 -12 -10 -8 -22 8 -43 -32
-26 -52 12 -15 45 -19 51 -6 6 13 -7 94 -14 87z m-1 -51 c8 -22 -15 -44 -26
-25 -10 16 -4 41 10 41 5 0 12 -7 16 -16z"/>
<path d="M1061 2820 c-8 -21 -4 -100 4 -100 7 0 9 16 7 38 -4 42 -9 69 -11 62z"/>
<path d="M3411 2820 c-8 -21 -4 -100 4 -100 7 0 9 16 7 38 -4 42 -9 69 -11 62z"/>
<path d="M4787 2814 c-3 -3 -3 -12 0 -20 3 -9 0 -12 -9 -9 -20 8 -41 -20 -33
-45 4 -13 15 -20 31 -20 22 0 24 4 24 50 0 50 -1 55 -13 44z m0 -50 c8 -21
-13 -42 -28 -27 -13 13 -5 43 11 43 6 0 13 -7 17 -16z"/>
<path d="M5171 2820 c-8 -21 -4 -100 4 -100 7 0 9 16 7 38 -4 42 -9 69 -11 62z"/>
<path d="M5784 2795 c-15 -23 -15 -27 0 -50 28 -43 76 -27 76 25 0 52 -48 68
-76 25z m62 -10 c9 -36 -2 -57 -28 -53 -39 5 -38 78 1 78 14 0 23 -9 27 -25z"/>
<path d="M6059 2772 c-2 -32 0 -52 6 -52 7 0 9 16 7 38 -6 65 -8 68 -13 14z"/>
<path d="M6204 2795 c-15 -23 -15 -27 0 -50 28 -43 76 -27 76 25 0 52 -48 68
-76 25z m62 -10 c9 -36 -2 -57 -28 -53 -39 5 -38 78 1 78 14 0 23 -9 27 -25z"/>
<path d="M6299 2811 c9 -6 12 -22 9 -50 -2 -25 1 -41 7 -41 7 0 9 15 7 38 -4
39 -1 38 35 -11 l21 -27 4 50 c2 31 -1 50 -8 50 -6 0 -9 -14 -7 -32 l4 -33
-28 33 c-15 18 -35 32 -43 32 -12 0 -13 -2 -1 -9z"/>
<path d="M6405 2770 c0 -50 0 -50 32 -50 17 0 34 4 37 8 3 5 -8 6 -25 4 -25
-4 -29 -1 -29 18 0 17 4 21 20 17 12 -3 20 0 20 8 0 8 -8 11 -20 8 -14 -4 -20
0 -20 10 0 9 11 17 28 20 23 3 22 4 -8 6 l-35 1 0 -50z"/>
<path d="M6726 2805 c-3 -9 -2 -14 3 -11 5 3 11 -3 14 -14 4 -15 0 -20 -13
-20 -11 0 -21 -4 -24 -8 -2 -4 8 -8 22 -7 16 0 26 -5 25 -12 -2 -7 3 -13 11
-13 12 0 11 8 -3 45 -20 53 -27 61 -35 40z"/>
<path d="M6799 2772 c-2 -32 0 -52 6 -52 7 0 9 16 7 38 -6 65 -8 68 -13 14z"/>
<path d="M7055 2770 l0 -50 35 1 c30 2 31 3 8 6 -25 4 -28 9 -28 43 0 21 6 41
13 43 6 3 3 6 -8 6 -17 1 -20 -5 -20 -49z"/>
<path d="M2228 2800 c-5 -17 3 -80 11 -80 7 0 6 79 -2 86 -3 3 -7 0 -9 -6z"/>
<path d="M2798 2800 c-5 -17 3 -80 11 -80 7 0 6 79 -2 86 -3 3 -7 0 -9 -6z"/>
<path d="M4360 2802 c0 -6 -12 -12 -27 -14 -24 -3 -28 -7 -25 -30 5 -38 -14
-36 -21 2 -6 29 -29 40 -42 20 -3 -5 0 -7 8 -4 10 4 15 -2 15 -20 0 -14 -5
-26 -10 -26 -5 0 -6 5 -3 10 3 6 1 10 -4 10 -6 0 -11 -7 -11 -15 0 -11 11 -15
43 -15 43 0 43 1 39 30 -4 25 -1 30 17 30 17 0 21 -6 21 -30 0 -16 3 -30 8
-30 8 0 7 78 -2 87 -3 4 -6 1 -6 -5z"/>
<path d="M369 2797 c0 -1 -1 -19 -2 -40 -2 -31 1 -37 18 -36 11 0 14 3 8 6
-16 6 -17 50 -1 55 7 3 6 7 -5 11 -9 3 -17 5 -18 4z"/>
<path d="M1908 2795 c-2 -2 -2 -20 0 -40 3 -24 9 -35 21 -35 13 0 13 2 2 9 -8
6 -12 19 -9 35 5 24 -3 42 -14 31z"/>
<path d="M2687 2794 c-9 -9 9 -68 21 -70 7 -1 8 0 2 3 -14 7 -13 50 2 55 8 3
6 6 -4 10 -9 4 -18 5 -21 2z"/>
<path d="M3228 2795 c-2 -2 -2 -20 0 -40 3 -24 9 -35 21 -35 13 0 13 2 2 9 -8
6 -12 19 -9 35 5 24 -3 42 -14 31z"/>
<path d="M3687 2794 c-9 -9 9 -68 21 -70 7 -1 8 0 2 3 -14 7 -13 50 2 55 8 3
6 6 -4 10 -9 4 -18 5 -21 2z"/>
<path d="M3947 2794 c-9 -9 9 -68 21 -70 7 -1 8 0 2 3 -14 7 -13 50 2 55 8 3
6 6 -4 10 -9 4 -18 5 -21 2z"/>
<path d="M5628 2795 c-2 -3 -2 -20 0 -40 3 -25 9 -35 21 -34 10 0 11 2 4 6
-16 6 -17 50 -1 55 8 3 6 6 -4 10 -9 4 -18 5 -20 3z"/>
<path d="M7208 2795 c-2 -3 -2 -20 0 -40 3 -25 9 -35 21 -34 10 0 11 2 4 6
-16 6 -17 50 -1 55 8 3 6 6 -4 10 -9 4 -18 5 -20 3z"/>
<path d="M190 2775 c-16 -19 -3 -55 20 -55 21 0 33 25 25 51 -8 23 -28 25 -45
4z m37 -11 c8 -21 -13 -42 -28 -27 -13 13 -5 43 11 43 6 0 13 -7 17 -16z"/>
<path d="M265 2760 c9 -16 17 -30 19 -30 3 0 -1 14 -7 30 -6 17 -15 30 -19 30
-5 0 -2 -13 7 -30z"/>
<path d="M417 2784 c-13 -13 -7 -55 9 -61 24 -9 51 23 38 45 -12 19 -36 27
-47 16z m38 -29 c0 -28 -29 -25 -33 3 -3 19 0 23 15 20 10 -2 18 -12 18 -23z"/>
<path d="M489 2788 c-6 -21 -1 -68 7 -68 7 0 9 11 6 26 -3 16 1 30 9 35 11 7
10 9 -3 9 -10 0 -18 -1 -19 -2z"/>
<path d="M530 2755 c0 -19 5 -35 10 -35 6 0 10 16 10 35 0 19 -4 35 -10 35 -5
0 -10 -16 -10 -35z"/>
<path d="M565 2754 c0 -19 5 -34 10 -34 6 0 11 12 10 27 0 14 6 28 14 31 10 3
13 -3 9 -27 -3 -19 0 -31 7 -31 7 0 9 13 7 34 -3 30 -8 35 -31 34 -23 -1 -26
-5 -26 -34z"/>
<path d="M645 2781 c-3 -6 0 -8 8 -5 8 3 18 1 21 -5 4 -5 -3 -12 -14 -16 -31
-10 -25 -35 9 -35 27 0 28 2 22 32 -7 33 -33 49 -46 29z m35 -41 c0 -5 -7 -10
-16 -10 -8 0 -12 5 -9 10 3 6 10 10 16 10 5 0 9 -4 9 -10z"/>
<path d="M785 2780 c-3 -6 1 -7 9 -4 9 3 16 1 16 -5 0 -7 -7 -14 -15 -17 -24
-9 -18 -34 8 -34 20 0 23 4 19 35 -4 34 -23 47 -37 25z m25 -40 c0 -5 -5 -10
-11 -10 -5 0 -7 5 -4 10 3 6 8 10 11 10 2 0 4 -4 4 -10z"/>
<path d="M884 2776 c-10 -25 0 -51 21 -54 18 -2 19 -2 3 8 -24 15 -23 30 3 30
12 0 19 5 17 13 -7 18 -37 21 -44 3z"/>
<path d="M949 2785 c0 0 -1 -15 -2 -33 -2 -28 1 -32 23 -32 24 0 26 3 22 34
-3 27 -8 34 -23 33 -10 -1 -19 -1 -20 -2z m31 -30 c0 -14 -4 -25 -10 -25 -11
0 -14 33 -3 43 11 11 13 8 13 -18z"/>
<path d="M1097 2784 c-13 -13 -7 -55 9 -61 24 -9 51 23 38 45 -12 19 -36 27
-47 16z m38 -29 c0 -28 -29 -25 -33 3 -3 19 0 23 15 20 10 -2 18 -12 18 -23z"/>
<path d="M1169 2788 c-6 -21 -1 -68 7 -68 7 0 9 11 6 26 -3 16 1 30 9 35 11 7
10 9 -3 9 -10 0 -18 -1 -19 -2z"/>
<path d="M1214 2776 c-10 -25 0 -51 21 -54 18 -2 19 -2 3 8 -24 15 -23 30 3
30 12 0 19 5 17 13 -7 18 -37 21 -44 3z m33 -2 c-3 -3 -12 -4 -19 -1 -8 3 -5
6 6 6 11 1 17 -2 13 -5z"/>
<path d="M1279 2786 c-6 -10 -1 -66 6 -66 6 0 11 10 10 23 0 12 5 22 10 22 6
0 10 -10 10 -22 -1 -18 5 -23 25 -23 24 0 26 3 22 35 -2 19 -7 35 -11 35 -4 0
-6 -13 -3 -30 2 -17 0 -30 -6 -30 -6 0 -12 12 -14 28 -2 20 -9 27 -25 28 -13
1 -23 1 -24 0z"/>
<path d="M1429 2788 c-6 -20 -1 -68 6 -68 7 0 9 15 7 35 -3 29 -9 44 -13 33z"/>
<path d="M1471 2790 c-1 -3 -3 -26 -4 -53 -1 -31 2 -47 10 -47 7 0 10 7 7 15
-4 9 0 15 10 15 8 0 18 11 22 24 6 27 -1 46 -18 46 -7 0 -6 -5 2 -15 13 -16 7
-45 -9 -45 -5 0 -12 15 -14 33 -2 17 -5 30 -6 27z"/>
<path d="M1534 2778 c-4 -6 1 -17 11 -24 25 -19 33 -8 9 12 -17 14 -17 15 -1
10 11 -3 16 -2 12 4 -8 13 -22 13 -31 -2z"/>
<path d="M1590 2768 c0 -32 14 -51 35 -46 10 1 18 6 17 11 -1 4 -2 18 -2 32 0
14 -4 25 -8 25 -5 0 -7 -13 -4 -30 3 -18 0 -30 -7 -30 -6 0 -11 14 -11 30 0
17 -4 30 -10 30 -5 0 -10 -10 -10 -22z"/>
<path d="M1669 2785 c0 0 -1 -15 -2 -33 -2 -28 1 -32 23 -32 21 0 26 5 25 27
0 14 6 28 14 31 10 3 13 -3 9 -27 -3 -19 0 -31 7 -31 7 0 9 13 7 34 -4 33 -6
34 -43 33 -21 -1 -39 -2 -40 -2z m31 -30 c0 -14 -4 -25 -10 -25 -11 0 -14 33
-3 43 11 11 13 8 13 -18z"/>
<path d="M1814 2778 c-4 -6 0 -16 9 -23 21 -15 22 -29 2 -21 -8 3 -15 1 -15
-4 0 -6 9 -10 20 -10 24 0 27 28 4 37 -8 3 -13 12 -10 19 7 17 0 18 -10 2z"/>
<path d="M1868 2755 c-2 -21 0 -35 7 -35 7 0 9 14 7 35 -2 19 -5 35 -7 35 -2
0 -5 -16 -7 -35z"/>
<path d="M1985 2781 c-3 -6 0 -8 8 -5 8 3 18 1 21 -5 4 -5 -3 -12 -14 -16 -38
-12 -23 -35 23 -35 40 0 43 2 42 27 0 14 6 28 14 31 10 3 13 -3 9 -27 -3 -20
0 -31 7 -31 7 0 10 10 8 24 -3 13 0 27 6 30 7 5 11 -4 11 -23 0 -17 5 -31 10
-31 12 0 13 40 2 56 -4 6 -25 10 -47 10 -38 -1 -40 -3 -37 -29 2 -15 -1 -27
-7 -27 -5 0 -11 12 -13 27 -3 28 -30 43 -43 24z m35 -41 c0 -5 -7 -10 -16 -10
-8 0 -12 5 -9 10 3 6 10 10 16 10 5 0 9 -4 9 -10z"/>
<path d="M2164 2776 c-9 -23 0 -51 16 -52 9 0 10 1 3 3 -21 7 -15 33 7 33 13
0 18 5 14 15 -8 19 -33 19 -40 1z"/>
<path d="M2304 2776 c-9 -23 0 -51 16 -52 9 0 10 1 3 3 -7 3 -13 16 -13 30 0
18 4 24 15 19 8 -3 15 -1 15 4 0 16 -30 12 -36 -4z"/>
<path d="M2370 2775 c-16 -19 -3 -55 20 -55 21 0 33 25 25 51 -8 23 -28 25
-45 4z m37 -11 c8 -21 -13 -42 -28 -27 -13 13 -5 43 11 43 6 0 13 -7 17 -16z"/>
<path d="M2439 2786 c-6 -10 -1 -66 6 -66 6 0 11 10 10 23 0 12 5 22 10 22 6
0 10 -10 10 -22 -1 -13 4 -23 11 -23 8 0 9 11 5 33 -5 24 -12 32 -29 33 -12 1
-22 1 -23 0z"/>
<path d="M2510 2786 c0 -2 7 -7 16 -10 8 -3 12 -2 9 4 -6 10 -25 14 -25 6z"/>
<path d="M2585 2781 c19 -9 19 -10 -3 -10 -34 -1 -27 -45 8 -48 25 -3 25 -3 3
7 -29 12 -30 30 -2 30 26 0 20 24 -7 27 -18 3 -18 2 1 -6z"/>
<path d="M2636 2782 c-2 -4 4 -8 15 -8 10 0 19 4 19 8 0 4 -6 8 -14 8 -8 0
-17 -4 -20 -8z"/>
<path d="M2734 2776 c-10 -25 0 -51 21 -54 18 -2 19 -2 3 8 -24 15 -23 30 3
30 12 0 19 5 17 13 -7 18 -37 21 -44 3z"/>
<path d="M2838 2755 c4 -29 8 -34 28 -33 20 2 24 8 24 35 0 18 -4 33 -8 33 -4
0 -8 -12 -7 -27 0 -14 -6 -28 -12 -30 -9 -3 -13 6 -13 26 0 17 -4 31 -8 31 -4
0 -6 -16 -4 -35z"/>
<path d="M2909 2788 c-6 -21 -1 -68 7 -68 7 0 9 11 6 26 -3 16 1 30 9 35 11 7
10 9 -3 9 -10 0 -18 -1 -19 -2z"/>
<path d="M2991 2773 c7 -10 14 -20 16 -22 1 -2 1 6 0 18 -1 11 -8 21 -15 21
-12 0 -12 -3 -1 -17z"/>
<path d="M3100 2780 c0 -5 7 -7 15 -4 8 4 15 1 15 -5 0 -7 -7 -14 -15 -17 -24
-9 -18 -34 8 -34 20 0 23 4 19 35 -3 26 -9 35 -23 35 -10 0 -19 -4 -19 -10z
m30 -40 c0 -5 -5 -10 -11 -10 -5 0 -7 5 -4 10 3 6 8 10 11 10 2 0 4 -4 4 -10z"/>
<path d="M3164 2776 c-10 -25 0 -51 21 -54 18 -2 19 -2 3 8 -10 6 -18 20 -18
32 0 15 5 19 20 15 11 -3 18 -1 14 4 -8 14 -34 11 -40 -5z"/>
<path d="M3268 2755 c4 -31 7 -35 28 -32 14 2 24 6 24 10 0 4 0 18 0 32 0 14
-4 25 -8 25 -4 0 -8 -12 -7 -27 0 -14 -6 -28 -12 -30 -9 -3 -13 6 -13 26 0 17
-4 31 -8 31 -4 0 -6 -16 -4 -35z"/>
<path d="M3340 2780 c0 -5 7 -7 15 -4 8 4 15 1 15 -5 0 -7 -7 -14 -15 -17 -24
-9 -18 -34 8 -34 20 0 23 4 19 35 -3 26 -9 35 -23 35 -10 0 -19 -4 -19 -10z
m30 -40 c0 -5 -5 -10 -11 -10 -5 0 -7 5 -4 10 3 6 8 10 11 10 2 0 4 -4 4 -10z"/>
<path d="M3440 2755 c0 -19 5 -35 10 -35 6 0 10 16 10 35 0 19 -4 35 -10 35
-5 0 -10 -16 -10 -35z"/>
<path d="M3475 2754 c0 -19 5 -34 10 -34 6 0 11 12 10 27 0 14 6 28 14 31 10
3 13 -3 9 -27 -3 -19 0 -31 7 -31 7 0 9 13 7 34 -3 30 -8 35 -31 34 -23 -1
-26 -5 -26 -34z"/>
<path d="M3575 2781 c19 -9 19 -10 -3 -10 -34 -1 -27 -45 8 -48 25 -3 25 -3 3
7 -29 12 -30 30 -2 30 26 0 20 24 -7 27 -18 3 -18 2 1 -6z"/>
<path d="M3619 2786 c-6 -10 -1 -66 6 -66 6 0 11 12 10 27 0 14 6 28 14 31 10
3 13 -3 9 -27 -3 -20 0 -31 7 -31 9 0 10 10 6 33 -5 24 -12 32 -29 33 -12 1
-22 1 -23 0z"/>
<path d="M3734 2776 c-10 -25 0 -51 21 -54 18 -2 19 -2 3 8 -24 15 -23 30 3
30 12 0 19 5 17 13 -7 18 -37 21 -44 3z"/>
<path d="M3834 2776 c-10 -25 0 -51 21 -54 18 -2 19 -2 3 8 -24 15 -23 30 3
30 12 0 19 5 17 13 -7 18 -37 21 -44 3z"/>
<path d="M3894 2778 c-4 -6 0 -16 9 -23 21 -15 22 -29 2 -21 -8 3 -15 1 -15
-4 0 -6 9 -10 20 -10 23 0 27 28 5 36 -8 4 -15 11 -15 16 0 6 7 7 16 4 8 -3
12 -2 9 4 -8 13 -22 13 -31 -2z"/>
<path d="M3997 2783 c-4 -3 -7 -17 -7 -30 0 -26 25 -42 42 -25 7 7 4 10 -8 9
-13 -1 -20 6 -22 21 -4 26 22 31 32 6 4 -9 9 -14 13 -11 3 4 0 13 -7 22 -13
16 -32 20 -43 8z"/>
<path d="M4058 2783 c7 -3 16 -2 19 1 4 3 -2 6 -13 5 -11 0 -14 -3 -6 -6z"/>
<path d="M4169 2785 c0 0 -1 -21 -2 -48 -1 -31 2 -47 10 -47 7 0 10 7 7 15 -4
9 0 15 9 15 22 0 39 26 32 49 -4 14 -14 20 -31 19 -13 -1 -24 -3 -25 -3z m45
-22 c9 -22 -10 -41 -25 -26 -13 13 -5 43 10 43 5 0 12 -8 15 -17z"/>
<path d="M4399 2788 c-6 -20 -1 -68 6 -68 7 0 9 15 7 35 -3 29 -9 44 -13 33z"/>
<path d="M4435 2771 c-8 -28 5 -51 29 -50 20 0 20 1 -2 10 -27 10 -26 45 1 43
9 -1 14 2 11 7 -9 16 -32 10 -39 -10z"/>
<path d="M4509 2788 c-6 -20 -1 -68 6 -68 7 0 9 15 7 35 -3 29 -9 44 -13 33z"/>
<path d="M4539 2786 c0 0 -1 -22 -2 -49 -1 -31 2 -47 10 -47 7 0 10 6 7 14 -3
8 3 16 16 19 31 8 25 62 -7 63 -13 1 -23 1 -24 0z m41 -31 c0 -16 -6 -25 -15
-25 -15 0 -21 31 -8 43 13 14 23 6 23 -18z"/>
<path d="M4615 2780 c-3 -6 1 -7 9 -4 9 3 16 1 16 -5 0 -7 -7 -14 -15 -17 -24
-9 -18 -34 8 -34 20 0 23 4 19 35 -4 34 -23 47 -37 25z m25 -40 c0 -5 -5 -10
-11 -10 -5 0 -7 5 -4 10 3 6 8 10 11 10 2 0 4 -4 4 -10z"/>
<path d="M4679 2785 c0 0 -1 -15 -2 -33 -2 -28 1 -32 23 -32 24 0 26 3 22 34
-3 27 -8 34 -23 33 -10 -1 -19 -1 -20 -2z m31 -30 c0 -14 -4 -25 -10 -25 -11
0 -14 33 -3 43 11 11 13 8 13 -18z"/>
<path d="M4824 2776 c-10 -26 0 -51 21 -51 16 0 20 7 20 30 0 33 -30 49 -41
21z m36 -22 c0 -31 -23 -28 -28 4 -2 15 2 22 12 22 11 0 16 -9 16 -26z"/>
<path d="M4950 2781 c12 -9 11 -11 -7 -11 -13 0 -23 -6 -23 -13 0 -18 21 -37
40 -36 9 0 6 4 -7 9 -29 12 -30 30 -2 30 23 0 22 21 -2 28 -11 3 -11 2 1 -7z"/>
<path d="M4989 2785 c-7 -3 -1 -65 6 -65 6 0 11 12 10 27 0 14 6 28 14 31 10
3 13 -3 9 -27 -3 -19 0 -31 7 -31 7 0 9 13 7 35 -4 29 -8 34 -28 33 -13 -1
-24 -3 -25 -3z"/>
<path d="M5100 2769 c-13 -24 2 -50 29 -48 14 1 14 2 -1 6 -28 7 -31 33 -3 33
18 0 23 4 19 15 -9 21 -31 19 -44 -6z"/>
<path d="M5239 2786 c0 0 -1 -22 -2 -49 -1 -31 2 -47 10 -47 7 0 10 6 7 14 -3
8 3 16 16 19 31 8 25 62 -7 63 -13 1 -23 1 -24 0z m41 -31 c0 -16 -6 -25 -15
-25 -15 0 -21 31 -8 43 13 14 23 6 23 -18z"/>
<path d="M5309 2788 c-6 -22 -1 -68 8 -68 6 0 9 9 6 21 -4 15 0 27 12 35 18
13 18 14 -3 14 -12 0 -22 -1 -23 -2z"/>
<path d="M5361 2772 c-7 -14 -7 -24 3 -37 19 -27 48 -12 44 22 -4 33 -32 42
-47 15z m37 -20 c2 -15 -2 -22 -12 -22 -11 0 -16 9 -16 26 0 31 23 28 28 -4z"/>
<path d="M5431 2773 c7 -10 14 -20 16 -22 1 -2 1 6 0 18 -1 11 -8 21 -15 21
-12 0 -12 -3 -1 -17z"/>
<path d="M5504 2776 c-10 -25 0 -51 21 -54 18 -2 19 -2 3 8 -24 15 -23 30 3
30 12 0 19 5 17 13 -7 18 -37 21 -44 3z m33 -2 c-3 -3 -12 -4 -19 -1 -8 3 -5
6 6 6 11 1 17 -2 13 -5z"/>
<path d="M5569 2774 c-16 -19 -1 -48 27 -51 14 -2 13 0 -4 7 -27 11 -26 46 1
44 9 -1 17 2 17 7 0 15 -27 10 -41 -7z"/>
<path d="M5674 2776 c-10 -26 0 -51 21 -51 16 0 20 7 20 30 0 33 -30 49 -41
21z m36 -22 c0 -31 -23 -28 -28 4 -2 15 2 22 12 22 11 0 16 -9 16 -26z"/>
<path d="M5880 2755 c0 -19 5 -35 10 -35 6 0 10 13 10 29 0 16 6 32 13 34 6 3
2 6 -10 6 -20 1 -23 -4 -23 -34z"/>
<path d="M5930 2780 c0 -5 7 -7 15 -4 8 4 15 1 15 -5 0 -7 -7 -14 -15 -17 -24
-9 -18 -34 8 -34 20 0 23 4 19 35 -3 26 -9 35 -23 35 -10 0 -19 -4 -19 -10z
m30 -40 c0 -5 -5 -10 -11 -10 -5 0 -7 5 -4 10 3 6 8 10 11 10 2 0 4 -4 4 -10z"/>
<path d="M5995 2771 c-8 -28 5 -51 29 -50 20 0 20 1 -2 10 -27 10 -26 45 1 43
9 -1 14 2 11 7 -9 16 -32 10 -39 -10z"/>
<path d="M6100 2769 c-13 -24 2 -50 29 -48 14 1 14 2 -1 6 -28 7 -31 33 -3 33
18 0 23 4 19 15 -9 21 -31 19 -44 -6z"/>
<path d="M6534 2776 c-9 -23 0 -51 16 -52 9 0 10 1 3 3 -21 7 -15 33 7 33 13
0 18 5 14 15 -8 19 -33 19 -40 1z"/>
<path d="M6599 2785 c0 0 -1 -15 -2 -33 -2 -28 1 -32 23 -32 24 0 26 3 22 34
-3 27 -8 34 -23 33 -10 -1 -19 -1 -20 -2z m31 -30 c0 -14 -4 -25 -10 -25 -11
0 -14 33 -3 43 11 11 13 8 13 -18z"/>
<path d="M6838 2756 c4 -32 6 -33 47 -33 38 0 42 2 37 20 -3 13 2 25 14 34 18
14 18 14 -6 11 -21 -2 -24 -8 -22 -32 3 -18 0 -26 -7 -22 -6 4 -11 18 -11 32
0 13 -4 24 -8 24 -4 0 -8 -12 -7 -27 0 -14 -6 -28 -12 -30 -9 -3 -13 6 -13 26
0 17 -4 31 -8 31 -4 0 -6 -15 -4 -34z"/>
<path d="M6960 2780 c0 -5 6 -7 14 -4 9 4 14 -3 14 -20 0 -16 -6 -26 -15 -26
-8 0 -11 5 -7 12 4 7 3 8 -5 4 -17 -11 -3 -26 23 -26 19 0 21 4 18 35 -3 26
-9 35 -23 35 -10 0 -19 -4 -19 -10z"/>
<path d="M7150 2781 c0 -6 7 -8 15 -5 22 9 18 -9 -5 -24 -25 -15 -17 -32 14
-32 21 0 23 3 17 32 -6 30 -41 55 -41 29z m30 -41 c0 -5 -7 -10 -16 -10 -8 0
-12 5 -9 10 3 6 10 10 16 10 5 0 9 -4 9 -10z"/>
<path d="M7250 2780 c0 -5 7 -7 15 -4 8 4 15 1 15 -5 0 -7 -7 -14 -15 -17 -24
-9 -18 -34 8 -34 20 0 23 4 19 35 -3 26 -9 35 -23 35 -10 0 -19 -4 -19 -10z
m30 -40 c0 -5 -5 -10 -11 -10 -5 0 -7 5 -4 10 3 6 8 10 11 10 2 0 4 -4 4 -10z"/>
<path d="M7319 2785 c0 0 -1 -15 -2 -33 -2 -28 1 -32 23 -32 21 0 26 5 25 27
0 14 6 28 14 31 10 3 13 -3 9 -27 -3 -19 0 -31 7 -31 7 0 9 13 7 34 -4 33 -6
34 -43 33 -21 -1 -39 -2 -40 -2z m31 -30 c0 -14 -4 -25 -10 -25 -11 0 -14 33
-3 43 11 11 13 8 13 -18z"/>
<path d="M2510 2761 c0 -5 8 -12 18 -16 16 -7 15 -8 -3 -16 -19 -8 -19 -9 -1
-6 27 3 31 24 7 37 -12 6 -21 7 -21 1z"/>
<path d="M4070 2765 c0 -5 5 -17 10 -25 5 -8 10 -10 10 -5 0 6 -5 17 -10 25
-5 8 -10 11 -10 5z"/>
<path d="M2630 2743 c6 -13 18 -23 28 -22 14 0 14 2 2 6 -8 4 -21 13 -28 22
-11 14 -11 13 -2 -6z"/>
<path d="M1530 2729 c0 -5 9 -9 20 -9 11 0 20 2 20 4 0 2 -9 6 -20 9 -11 3
-20 1 -20 -4z"/>
<path d="M11510 2719 c0 -5 5 -7 10 -4 6 3 10 8 10 11 0 2 -4 4 -10 4 -5 0
-10 -5 -10 -11z"/>
<path d="M260 2700 c-9 -6 -10 -10 -3 -10 6 0 15 5 18 10 8 12 4 12 -15 0z"/>
<path d="M2988 2693 c7 -3 16 -2 19 1 4 3 -2 6 -13 5 -11 0 -14 -3 -6 -6z"/>
<path d="M5428 2693 c7 -3 16 -2 19 1 4 3 -2 6 -13 5 -11 0 -14 -3 -6 -6z"/>
<path d="M9350 2359 c0 -5 5 -7 10 -4 6 3 10 8 10 11 0 2 -4 4 -10 4 -5 0 -10
-5 -10 -11z"/>
<path d="M690 2350 c0 -5 16 -10 35 -10 19 0 35 -4 35 -8 0 -4 -16 -23 -35
-42 -19 -19 -35 -38 -35 -44 0 -6 20 10 45 34 l45 44 0 -37 c0 -20 5 -37 10
-37 6 0 10 25 10 55 l0 55 -55 0 c-30 0 -55 -4 -55 -10z"/>
<path d="M1630 2350 c0 -5 19 -10 42 -10 l42 0 -44 -45 c-24 -24 -41 -47 -39
-50 3 -2 23 13 44 35 22 22 42 40 46 40 4 0 10 -17 12 -37 3 -28 4 -23 5 20
l2 57 -55 0 c-30 0 -55 -4 -55 -10z"/>
<path d="M2630 2350 c0 -5 17 -10 37 -10 l37 0 -42 -43 c-55 -56 -41 -70 15
-15 l43 42 0 -37 c0 -20 5 -37 10 -37 6 0 10 25 10 55 l0 55 -55 0 c-30 0 -55
-4 -55 -10z"/>
<path d="M120 2330 c-25 -25 -25 -45 0 -70 32 -32 79 -25 93 13 5 13 1 17 -17
17 -19 0 -23 -4 -19 -20 4 -15 0 -20 -15 -20 -24 0 -37 30 -28 66 7 28 32 31
58 7 17 -15 18 -15 18 3 0 28 -63 31 -90 4z"/>
<path d="M325 2295 l0 -55 35 0 c35 0 36 1 32 35 -2 19 -10 35 -16 35 -8 0
-11 -11 -8 -30 3 -19 0 -30 -8 -30 -6 0 -11 10 -10 23 4 48 -1 77 -12 77 -9 0
-13 -18 -13 -55z"/>
<path d="M508 2300 c3 -39 8 -51 25 -56 14 -4 25 -1 34 12 17 23 13 36 -15 49
-12 5 -22 18 -22 27 0 10 -6 18 -12 18 -9 0 -12 -15 -10 -50z m47 -25 c0 -10
-6 -20 -12 -22 -8 -3 -13 5 -13 22 0 17 5 25 13 23 6 -3 12 -13 12 -23z"/>
<path d="M918 2343 c7 -3 12 -23 12 -48 0 -25 -5 -46 -12 -49 -7 -3 9 -4 36
-3 34 1 51 7 54 17 4 12 2 13 -9 3 -7 -7 -22 -13 -32 -13 -17 0 -18 6 -15 50
3 48 2 50 -22 49 -14 0 -19 -3 -12 -6z"/>
<path d="M1155 2295 c0 -45 3 -55 17 -55 12 0 16 5 12 18 -5 16 -5 16 9 0 8
-10 20 -18 27 -18 9 0 7 6 -5 20 -18 20 -18 21 1 35 13 10 15 14 5 15 -8 0
-20 -8 -27 -17 -12 -16 -13 -14 -14 20 0 23 -5 37 -12 37 -9 0 -13 -18 -13
-55z"/>
<path d="M1358 2300 c3 -32 0 -50 -7 -50 -18 0 -25 29 -11 45 7 8 8 15 2 15
-18 0 -34 -29 -27 -50 5 -15 15 -20 38 -20 l32 0 -3 55 c-2 33 -8 55 -15 55
-8 0 -11 -17 -9 -50z"/>
<path d="M1410 2340 c0 -5 5 -10 10 -10 6 0 10 5 10 10 0 6 -4 10 -10 10 -5 0
-10 -4 -10 -10z"/>
<path d="M1882 2343 c-7 -3 -18 -16 -23 -30 -13 -36 12 -73 49 -73 l27 0 -25
13 c-30 15 -38 58 -15 77 13 11 21 11 36 2 10 -7 19 -8 19 -3 0 17 -40 25 -68
14z"/>
<path d="M2405 2295 c0 -42 3 -55 15 -55 12 0 14 11 12 55 -5 74 -27 74 -27 0z"/>
<path d="M2210 2329 c0 -5 5 -7 10 -4 6 3 10 8 10 11 0 2 -4 4 -10 4 -5 0 -10
-5 -10 -11z"/>
<path d="M284 2320 c-13 -13 -5 -80 10 -80 7 0 10 16 9 41 -1 45 -5 53 -19 39z"/>
<path d="M230 2275 c0 -22 5 -35 13 -35 9 0 12 11 9 35 -2 19 -8 35 -13 35 -5
0 -9 -16 -9 -35z"/>
<path d="M419 2278 c6 -28 12 -34 37 -36 29 -3 30 -2 26 33 -2 19 -10 35 -16
35 -8 0 -11 -11 -8 -30 3 -18 0 -30 -7 -30 -6 0 -11 14 -11 30 0 19 -5 30 -14
30 -10 0 -12 -8 -7 -32z"/>
<path d="M1020 2275 c0 -24 5 -35 15 -35 10 0 15 11 15 35 0 24 -5 35 -15 35
-10 0 -15 -11 -15 -35z"/>
<path d="M1065 2274 c0 -32 2 -34 35 -34 35 0 36 1 32 34 -4 31 -7 34 -35 34
-30 0 -32 -3 -32 -34z m45 1 c0 -14 -4 -25 -10 -25 -11 0 -14 33 -3 43 11 11
13 8 13 -18z"/>
<path d="M1250 2295 c-26 -32 14 -75 44 -45 8 8 7 10 -5 5 -10 -4 -20 -2 -24
4 -3 7 3 11 15 11 16 0 20 4 16 16 -3 9 -6 18 -6 20 0 10 -29 3 -40 -11z m30
-5 c0 -5 -4 -10 -10 -10 -5 0 -10 5 -10 10 0 6 5 10 10 10 6 0 10 -4 10 -10z"/>
<path d="M1405 2275 c0 -25 4 -35 15 -35 12 0 15 8 12 35 -2 19 -9 35 -16 35
-6 0 -11 -15 -11 -35z"/>
<path d="M1450 2273 c0 -31 2 -33 33 -33 32 0 33 1 29 34 -4 31 -7 35 -33 34
-26 -1 -29 -4 -29 -35z m40 2 c0 -14 -4 -25 -10 -25 -11 0 -14 33 -3 43 11 11
13 8 13 -18z"/>
<path d="M1978 2275 c4 -31 8 -35 33 -35 26 0 29 3 29 35 0 23 -5 35 -14 35
-9 0 -12 -8 -9 -24 3 -13 0 -27 -6 -30 -7 -5 -11 4 -11 23 0 19 -5 31 -13 31
-9 0 -12 -11 -9 -35z"/>
<path d="M2065 2274 c0 -24 5 -34 15 -34 11 0 16 9 15 28 0 16 5 26 13 25 6
-2 12 1 12 5 0 5 -12 9 -27 10 -25 0 -28 -3 -28 -34z"/>
<path d="M2135 2274 c0 -24 5 -34 15 -34 11 0 16 9 15 28 0 16 5 26 13 25 6
-2 12 1 12 5 0 5 -12 9 -27 10 -25 0 -28 -3 -28 -34z"/>
<path d="M2205 2275 c0 -25 4 -35 15 -35 12 0 15 8 12 35 -2 19 -9 35 -16 35
-6 0 -11 -15 -11 -35z"/>
<path d="M2254 2296 c-11 -28 1 -51 26 -53 15 -1 18 0 8 3 -11 3 -18 15 -18
29 0 18 4 23 15 19 8 -4 15 -1 15 5 0 16 -40 13 -46 -3z"/>
<path d="M2319 2278 c6 -28 12 -34 37 -36 29 -3 30 -2 26 33 -5 43 -22 47 -22
5 0 -16 -4 -30 -10 -30 -5 0 -10 14 -10 30 0 19 -5 30 -14 30 -10 0 -12 -8 -7
-32z"/>
<path d="M2461 2296 c-17 -20 -4 -56 18 -56 28 0 47 28 34 48 -14 23 -37 26
-52 8z m34 -21 c0 -10 -6 -20 -12 -22 -8 -3 -13 5 -13 22 0 17 5 25 13 23 6
-3 12 -13 12 -23z"/>
<path d="M9487 2216 c-10 -8 -14 -16 -10 -19 5 -3 14 3 21 14 14 22 13 23 -11
5z"/>
<path d="M9406 2167 c3 -10 9 -15 12 -12 3 3 0 11 -7 18 -10 9 -11 8 -5 -6z"/>
<path d="M9470 2110 c-12 -7 -10 -9 7 -7 12 0 19 5 17 9 -6 10 -6 10 -24 -2z"/>
<path d="M9524 1882 c3 -5 0 -13 -6 -16 -11 -5 -11 -7 0 -12 6 -3 10 -10 7
-14 -3 -5 -1 -11 5 -15 5 -3 10 3 10 14 0 12 3 20 8 19 4 -2 8 2 10 7 1 6 -1
10 -5 10 -5 0 -14 4 -22 9 -9 6 -12 5 -7 -2z"/>
<path d="M9483 1863 c-19 -7 -16 -20 6 -26 14 -3 17 0 14 14 -3 11 -6 19 -7
18 0 0 -7 -3 -13 -6z"/>
<path d="M9474 1797 c-3 -8 2 -30 10 -48 13 -31 14 -32 15 -9 1 20 3 22 11 10
6 -9 10 -10 10 -3 0 6 3 19 7 28 5 14 2 16 -17 10 -15 -5 -20 -3 -16 3 3 6 2
13 -4 17 -6 3 -13 0 -16 -8z"/>
<path d="M125 446 c-28 -20 -13 -59 30 -79 25 -12 35 -23 33 -35 -5 -26 -44
-27 -62 0 l-16 22 0 -24 c0 -22 5 -25 38 -28 28 -2 44 3 56 17 25 28 12 57
-35 82 -42 21 -47 42 -12 47 13 2 27 -6 37 -20 l16 -22 0 24 c0 21 -5 25 -33
27 -19 2 -42 -3 -52 -11z"/>
<path d="M368 383 l3 -78 34 -2 c41 -3 65 18 65 56 0 34 -22 55 -50 48 -17 -4
-20 0 -20 24 0 21 -5 29 -17 29 -16 0 -18 -9 -15 -77z m67 -29 c0 -28 -4 -39
-15 -39 -16 0 -26 45 -16 72 11 28 31 7 31 -33z"/>
<path d="M970 445 c0 -8 7 -15 15 -15 8 0 15 7 15 15 0 8 -7 15 -15 15 -8 0
-15 -7 -15 -15z"/>
<path d="M256 394 c-32 -31 -10 -94 33 -94 23 0 51 31 51 57 0 23 -29 53 -53
53 -8 0 -23 -7 -31 -16z m49 -13 c8 -26 -5 -73 -19 -68 -12 4 -20 51 -12 73 8
20 24 17 31 -5z"/>
<path d="M498 403 c7 -3 12 -23 12 -48 0 -25 -5 -45 -12 -48 -7 -3 1 -6 17 -6
29 -1 30 0 28 46 -1 27 -2 51 -2 56 -1 4 -13 7 -28 6 -16 0 -22 -3 -15 -6z"/>
<path d="M555 401 c-7 -12 12 -24 25 -16 11 7 4 25 -10 25 -5 0 -11 -4 -15 -9z"/>
<path d="M618 399 c-21 -12 -24 -69 -6 -87 16 -16 43 -15 57 1 8 11 6 13 -11
13 -14 -1 -24 6 -26 17 -3 13 3 17 28 17 31 0 32 1 18 23 -18 26 -36 31 -60
16z m40 -17 c2 -7 -3 -12 -12 -12 -9 0 -16 7 -16 16 0 17 22 14 28 -4z"/>
<path d="M765 355 c0 -48 2 -55 20 -55 19 0 23 21 16 103 -1 4 -9 7 -18 7 -15
0 -18 -9 -18 -55z"/>
<path d="M815 400 c-3 -5 -1 -10 5 -10 8 0 11 -15 8 -45 -3 -42 -2 -45 22 -45
24 0 25 3 22 45 -3 37 -1 45 13 45 14 0 16 -8 13 -45 -3 -40 -1 -45 17 -45 18
0 20 5 16 51 -3 55 -20 71 -52 51 -11 -7 -20 -8 -24 -2 -8 13 -32 13 -40 0z"/>
<path d="M965 355 c0 -48 2 -55 20 -55 18 0 20 5 17 55 -3 43 -7 55 -20 55
-14 0 -17 -10 -17 -55z"/>
<path d="M1035 355 c0 -48 2 -55 20 -55 19 0 23 21 16 103 -1 4 -9 7 -18 7
-15 0 -18 -9 -18 -55z"/>
<path d="M1085 400 c-3 -5 -1 -10 5 -10 8 0 11 -15 8 -45 -3 -40 -1 -45 17
-45 17 0 20 7 20 42 0 26 5 43 14 46 10 3 12 -6 10 -42 -4 -44 -3 -46 22 -46
25 0 26 1 19 45 -9 58 -23 74 -50 57 -12 -7 -21 -8 -25 -2 -8 13 -32 13 -40 0z"/>
</g>
</svg>
